<?xml version="1.0" encoding="UTF-8" standalone="no"?>
<!-- Generator: Adobe Illustrator 19.2.0, SVG Export Plug-In . SVG Version: 6.00 Build 0)  -->

<svg
   xmlns:dc="http://purl.org/dc/elements/1.1/"
   xmlns:cc="http://creativecommons.org/ns#"
   xmlns:rdf="http://www.w3.org/1999/02/22-rdf-syntax-ns#"
   xmlns:svg="http://www.w3.org/2000/svg"
   xmlns="http://www.w3.org/2000/svg"
   xmlns:sodipodi="http://sodipodi.sourceforge.net/DTD/sodipodi-0.dtd"
   xmlns:inkscape="http://www.inkscape.org/namespaces/inkscape"
   version="1.1"
   id="Layer_1"
   x="0px"
   y="0px"
   viewBox="0 0 300 300"
   xml:space="preserve"
   sodipodi:docname="assessoria.svg"
   width="300"
   height="300"
   inkscape:version="0.92.4 (5da689c313, 2019-01-14)"><metadata
   id="metadata129"><rdf:RDF><cc:Work
       rdf:about=""><dc:format>image/svg+xml</dc:format><dc:type
         rdf:resource="http://purl.org/dc/dcmitype/StillImage" /><dc:title></dc:title></cc:Work></rdf:RDF></metadata><defs
   id="defs127" /><sodipodi:namedview
   pagecolor="#ffffff"
   bordercolor="#666666"
   borderopacity="1"
   objecttolerance="10"
   gridtolerance="10"
   guidetolerance="10"
   inkscape:pageopacity="0"
   inkscape:pageshadow="2"
   inkscape:window-width="1366"
   inkscape:window-height="705"
   id="namedview125"
   showgrid="false"
   inkscape:zoom="1.4142136"
   inkscape:cx="225.95873"
   inkscape:cy="124.43475"
   inkscape:window-x="-8"
   inkscape:window-y="-8"
   inkscape:window-maximized="1"
   inkscape:current-layer="layer1" />
<style
   type="text/css"
   id="style2">
	.st0{fill:#E6E6E6;}
	.st1{fill:#FBB03B;}
	.st2{fill:#FFC06C;}
	.st3{fill:none;stroke:#FFFFFF;stroke-width:14.9358;stroke-miterlimit:10;}
	.st4{fill:#CCCCCC;}
	.st5{fill:#B3B3B3;}
	.st6{fill:none;stroke:#FBB03B;stroke-width:24.893;stroke-miterlimit:10;}
	.st7{fill:none;}
</style>
<g
   inkscape:groupmode="layer"
   id="layer2"
   inkscape:label="fundo"
   sodipodi:insensitive="true"><path
     style="opacity:1;fill:#008080;fill-opacity:1;fill-rule:evenodd;stroke:#ffffff;stroke-width:7;stroke-miterlimit:4;stroke-dasharray:none;stroke-opacity:1"
     d="M 155,4 C 290.08167,4.7252964 290.53553,5.2289812 287,147.5 289.82406,290.28822 289.23691,288.94975 154.5,284 12.09491,286.26653 18,283.57244 18,146 15.697691,4.6608984 14.433892,4 155,4 Z"
     id="rect936"
     inkscape:connector-curvature="0"
     sodipodi:nodetypes="ccccc" /></g>
<g
   inkscape:groupmode="layer"
   id="layer1"
   inkscape:label="lampada"><g
     id="g122"
     transform="matrix(0.22524557,0,0,0.22524557,47.265826,31.24689)">
	<circle
   class="st0"
   cx="478.70001"
   cy="792.5"
   r="35.900002"
   id="circle4"
   style="fill:#e6e6e6" />
	<path
   class="st1"
   d="m 488.4,222.2 c -2.7,-0.1 -5.3,-0.2 -8,-0.2 -2.6,0 -5.2,0.1 -7.9,0.2 -130.1,5.2 -227.4,145.4 -170,262.3 l 2.7,5.4 c 30.5,52.5 70.4,38.5 70.4,98.3 v 42.3 h 210.6 v -42.8 c 0,-59.5 36,-47.4 65.6,-97.5 l 3.1,-6.4 C 711.2,366.8 618.1,227.4 488.4,222.2 Z"
   id="path6"
   inkscape:connector-curvature="0"
   style="fill:#fbb03b" />
	<g
   id="g10">
		<path
   class="st2"
   d="m 488.4,222.2 c -2.7,-0.1 -5.3,-0.2 -8,-0.2 -2.6,0 -5.2,0.1 -7.9,0.2 -57.2,2.3 -108,30.6 -142.1,71.6 31.8,-26.6 72.1,-43.9 116.2,-45.7 2.6,-0.1 5.2,-0.2 7.9,-0.2 2.7,0 5.3,0.1 8,0.2 129.7,5.3 222.9,144.6 166.6,261.6 l -3.1,6.4 c -2.3,3.9 -4.6,7.4 -7,10.5 10.4,-8.2 22.1,-18.2 32.9,-36.4 l 3.1,-6.4 C 711.2,366.8 618.1,227.4 488.4,222.2 Z"
   id="path8"
   inkscape:connector-curvature="0"
   style="fill:#ffc06c" />
	</g>
	<path
   class="st3"
   d="m 500.2,615.4 c -3.8,-33.6 -7.5,-67.3 -6.2,-101.1 1.3,-33.8 8.1,-67.8 24.2,-97.5 4.1,-7.5 8.9,-14.9 15.9,-19.9 11.7,-8.3 28.8,-8.1 40.3,0.6 11.5,8.7 16.3,25.1 11.5,38.6 -4.8,13.3 -17.2,22.3 -30.1,28.2 -25.6,11.8 -134.3,11.8 -159.9,0 -12.8,-5.9 -25.3,-14.9 -30.1,-28.2 -4.9,-13.5 0,-29.9 11.5,-38.6 11.5,-8.7 28.6,-8.9 40.3,-0.6 7,5 11.8,12.4 15.9,19.9 16.1,29.7 22.9,63.7 24.2,97.5 1.3,33.8 -2.4,67.5 -6.2,101.1"
   id="path12"
   inkscape:connector-curvature="0"
   style="fill:none;stroke:#ffffff;stroke-width:14.9357996;stroke-miterlimit:10" />
	<path
   class="st4"
   d="M 556.9,792.5 H 406.2 c -12.1,0 -30.9,-9.4 -30.9,-20.9 v 0 -151.7 c 0,-8.1 6.5,-14.6 14.6,-14.6 h 183.3 c 8.1,0 14.6,6.5 14.6,14.6 v 151.1 0.6 c 0,11.5 -18.9,20.9 -30.9,20.9 z"
   id="path14"
   inkscape:connector-curvature="0"
   style="fill:#cccccc" />
	<path
   class="st0"
   d="m 588.2,630.5 -225.6,27.2 c -9.6,1.2 -18.3,-5.7 -19.5,-15.3 l -0.4,-3.4 c -1.2,-9.6 5.7,-18.3 15.3,-19.5 l 225.6,-27.2 c 9.6,-1.2 18.3,5.7 19.5,15.3 l 0.4,3.4 c 1.2,9.6 -5.7,18.3 -15.3,19.5 z"
   id="path16"
   inkscape:connector-curvature="0"
   style="fill:#e6e6e6" />
	<path
   class="st0"
   d="m 595.9,693.9 -225.6,27.2 c -9.6,1.2 -18.3,-5.7 -19.5,-15.3 l -0.4,-3.4 c -1.2,-9.6 5.7,-18.3 15.3,-19.5 l 225.6,-27.2 c 9.6,-1.2 18.3,5.7 19.5,15.3 l 0.4,3.4 c 1.1,9.6 -5.7,18.4 -15.3,19.5 z"
   id="path18"
   inkscape:connector-curvature="0"
   style="fill:#e6e6e6" />
	<path
   class="st0"
   d="m 603.5,757.4 -225.6,27.2 c -9.6,1.2 -18.3,-5.7 -19.5,-15.3 l -0.4,-3.4 c -1.2,-9.6 5.7,-18.3 15.3,-19.5 l 225.6,-27.2 c 9.6,-1.2 18.3,5.7 19.5,15.3 l 0.4,3.4 c 1.2,9.6 -5.7,18.3 -15.3,19.5 z"
   id="path20"
   inkscape:connector-curvature="0"
   style="fill:#e6e6e6" />
	<polygon
   class="st5"
   points="375.3,732.6 587.8,707 587.8,694.9 375.3,720.5 "
   id="polygon22"
   style="fill:#b3b3b3" />
	<path
   class="st5"
   d="m 586.5,630.7 -211.2,25.5 v 12.1 l 211.2,-25.5 c 0.4,-0.1 0.8,-0.2 1.2,-0.3 v -12.1 c -0.4,0.1 -0.7,0.2 -1.2,0.3 z"
   id="path24"
   inkscape:connector-curvature="0"
   style="fill:#b3b3b3" />
	<path
   class="st5"
   d="m 382.8,784 c 6.6,5.1 16.2,8.5 23.4,8.5 h 6.5 L 587.8,771.4 V 771 759.3 Z"
   id="path26"
   inkscape:connector-curvature="0"
   style="fill:#b3b3b3" />
	<g
   id="g120">
		<g
   id="g118">
			<g
   id="g116">
				<g
   id="g34">
					<line
   class="st6"
   x1="242.2"
   y1="605.20001"
   x2="298"
   y2="557.59998"
   id="line28"
   style="fill:none;stroke:#fbb03b;stroke-width:24.89299965;stroke-miterlimit:10" />
					<line
   class="st6"
   x1="242.2"
   y1="605.20001"
   x2="298"
   y2="557.59998"
   id="line30"
   style="fill:none;stroke:#fbb03b;stroke-width:24.89299965;stroke-miterlimit:10" />
					<path
   class="st7"
   d="m 275,466.8 c 0,0 0.1,0.3 0.3,0.9 0.2,0.6 0.5,1.5 0.9,2.6 0.8,2.2 1.8,5.4 3.3,9.2 0.4,0.9 0.7,1.9 1.1,2.9 0.2,0.5 0.4,1 0.6,1.6 0.2,0.5 0.5,1 0.7,1.6 0.9,2.1 1.9,4.4 2.9,6.7 1.1,2.3 2.3,4.6 3.4,7 0.5,1.2 1.2,2.4 1.9,3.5 0.6,1.2 1.3,2.4 1.9,3.6 5.2,9.4 11.3,18.4 16.1,24.9 2.4,3.2 4.6,5.9 6.1,7.7 1.5,1.8 2.4,2.8 2.4,2.8 l -85,72.6 c 0,0 -1.3,-1.5 -3.6,-4.3 -2.3,-2.8 -5.5,-6.8 -9.2,-11.7 -1.8,-2.5 -3.7,-5.2 -5.8,-8.1 -1,-1.4 -2.1,-2.9 -3.1,-4.4 -1,-1.5 -2.1,-3.1 -3.1,-4.7 -1,-1.6 -2.1,-3.2 -3.2,-4.9 -1.1,-1.6 -2.1,-3.4 -3.1,-5.1 -1,-1.7 -2.1,-3.5 -3.1,-5.2 l -1.6,-2.6 -1.5,-2.7 c -1,-1.8 -2,-3.6 -2.9,-5.4 -1,-1.8 -2,-3.6 -2.8,-5.4 -1.8,-3.6 -3.5,-7.2 -5.2,-10.7 -1.5,-3.5 -3,-6.9 -4.4,-10.2 -0.3,-0.8 -0.7,-1.6 -1,-2.4 -0.3,-0.8 -0.6,-1.6 -0.9,-2.4 -0.6,-1.5 -1.2,-3 -1.7,-4.5 -2.3,-5.7 -3.9,-10.6 -5,-14 -0.6,-1.7 -1,-3 -1.3,-4 -0.3,-0.9 -0.5,-1.4 -0.5,-1.4 z"
   id="path32"
   inkscape:connector-curvature="0"
   style="fill:none" />
				</g>
				<g
   id="g42">
					<line
   class="st6"
   x1="177.89999"
   y1="482.70001"
   x2="248.7"
   y2="463.89999"
   id="line36"
   style="fill:none;stroke:#fbb03b;stroke-width:24.89299965;stroke-miterlimit:10" />
					<line
   class="st6"
   x1="177.89999"
   y1="482.70001"
   x2="248.7"
   y2="463.89999"
   id="line38"
   style="fill:none;stroke:#fbb03b;stroke-width:24.89299965;stroke-miterlimit:10" />
					<path
   class="st7"
   d="m 267.3,371.9 c 0,0 -0.2,1.3 -0.4,3.7 -0.1,1.2 -0.3,2.6 -0.5,4.2 -0.1,0.8 -0.2,1.7 -0.3,2.6 -0.1,0.9 -0.1,1.9 -0.2,2.9 -0.7,8.1 -0.9,19 -0.3,29.7 0.1,1.3 0.2,2.7 0.3,4 0.1,1.3 0.1,2.7 0.3,4 0.3,2.6 0.6,5.2 0.9,7.7 0.8,5 1.4,9.7 2.3,13.6 0.4,2 0.7,3.8 1.1,5.4 0.4,1.6 0.7,3 1,4.1 0.6,2.3 0.9,3.6 0.9,3.6 l -108.1,28.7 c 0,0 -0.5,-2 -1.4,-5.5 -0.4,-1.7 -0.9,-3.9 -1.5,-6.3 -0.6,-2.4 -1.1,-5.2 -1.7,-8.2 -1.3,-6 -2.3,-13.1 -3.5,-20.7 -0.4,-3.8 -0.9,-7.8 -1.3,-11.8 -0.3,-2 -0.3,-4 -0.5,-6.1 -0.1,-2 -0.3,-4.1 -0.4,-6.1 -0.9,-16.4 -0.6,-32.7 0.5,-45 0.1,-1.5 0.2,-3 0.3,-4.4 0.2,-1.4 0.3,-2.7 0.4,-3.9 0.3,-2.5 0.5,-4.6 0.8,-6.4 0.4,-3.6 0.7,-5.6 0.7,-5.6 z"
   id="path40"
   inkscape:connector-curvature="0"
   style="fill:none" />
				</g>
				<g
   id="g50">
					<line
   class="st6"
   x1="172.89999"
   y1="344.5"
   x2="244.89999"
   y2="358"
   id="line44"
   style="fill:none;stroke:#fbb03b;stroke-width:24.89299965;stroke-miterlimit:10" />
					<line
   class="st6"
   x1="172.89999"
   y1="344.5"
   x2="244.89999"
   y2="358"
   id="line46"
   style="fill:none;stroke:#fbb03b;stroke-width:24.89299965;stroke-miterlimit:10" />
					<path
   class="st7"
   d="m 301.2,283.2 c 0,0 -0.2,0.3 -0.5,0.8 -0.3,0.5 -0.8,1.3 -1.5,2.3 -0.6,1 -1.4,2.2 -2.3,3.6 -0.4,0.7 -0.9,1.4 -1.4,2.2 -0.5,0.8 -0.9,1.6 -1.4,2.5 -1,1.8 -2.1,3.7 -3.2,5.7 -0.6,1 -1.1,2.1 -1.6,3.2 -0.5,1.1 -1.1,2.2 -1.7,3.3 -0.6,1.1 -1.2,2.3 -1.7,3.4 -0.6,1.2 -1.1,2.4 -1.6,3.6 -0.5,1.2 -1.1,2.4 -1.6,3.7 -0.5,1.2 -1.1,2.4 -1.6,3.7 -1,2.5 -1.9,5 -2.9,7.5 -0.5,1.2 -0.9,2.5 -1.3,3.7 -0.4,1.2 -0.8,2.5 -1.2,3.7 -0.4,1.2 -0.8,2.4 -1.2,3.5 -0.4,1.2 -0.6,2.3 -1,3.4 -0.6,2.2 -1.2,4.3 -1.7,6.3 -0.3,1 -0.5,1.9 -0.7,2.8 -0.2,0.9 -0.4,1.8 -0.6,2.6 -0.4,1.6 -0.7,3 -0.9,4.1 -0.3,1.2 -0.5,2 -0.6,2.7 -0.1,0.6 -0.2,1 -0.2,1 L 159,341.9 c 0,0 0.1,-0.5 0.3,-1.5 0.1,-1 0.5,-2.3 0.8,-4.1 0.4,-1.8 0.9,-3.9 1.4,-6.3 0.3,-1.2 0.6,-2.5 0.9,-3.9 0.3,-1.4 0.6,-2.8 1,-4.3 0.8,-3 1.7,-6.2 2.6,-9.6 0.5,-1.7 0.9,-3.5 1.5,-5.2 0.6,-1.8 1.2,-3.6 1.8,-5.4 0.6,-1.8 1.2,-3.7 1.8,-5.6 0.6,-1.9 1.2,-3.8 2,-5.7 1.5,-3.8 2.9,-7.6 4.4,-11.4 0.7,-1.9 1.6,-3.8 2.4,-5.7 0.8,-1.9 1.7,-3.7 2.5,-5.6 0.8,-1.8 1.6,-3.7 2.5,-5.5 0.9,-1.8 1.8,-3.5 2.6,-5.2 0.9,-1.7 1.7,-3.4 2.5,-5.1 0.8,-1.6 1.6,-3.3 2.5,-4.8 1.7,-3.1 3.4,-6 4.9,-8.7 0.8,-1.3 1.5,-2.6 2.2,-3.8 0.7,-1.2 1.5,-2.3 2.1,-3.4 1.3,-2.1 2.5,-4 3.5,-5.5 1,-1.5 1.7,-2.7 2.2,-3.5 0.5,-0.8 0.8,-1.2 0.8,-1.2 z"
   id="path48"
   inkscape:connector-curvature="0"
   style="fill:none" />
				</g>
				<g
   id="g58">
					<line
   class="st6"
   x1="228"
   y1="217.5"
   x2="287"
   y2="260.89999"
   id="line52"
   style="fill:none;stroke:#fbb03b;stroke-width:24.89299965;stroke-miterlimit:10" />
					<line
   class="st6"
   x1="228"
   y1="217.5"
   x2="287"
   y2="260.89999"
   id="line54"
   style="fill:none;stroke:#fbb03b;stroke-width:24.89299965;stroke-miterlimit:10" />
					<path
   class="st7"
   d="m 370.2,217.7 c 0,0 -0.3,0.2 -0.8,0.5 -0.5,0.3 -1.4,0.8 -2.4,1.4 -2,1.3 -4.8,3.1 -8.2,5.3 -6.6,4.7 -15.3,11.1 -23.3,18.4 -1,0.9 -2,1.8 -3,2.8 -1,0.9 -1.9,1.9 -2.9,2.8 -1,0.9 -1.9,1.8 -2.8,2.7 -0.9,1 -1.8,1.9 -2.6,2.8 -0.9,0.9 -1.7,1.8 -2.6,2.7 -0.8,0.9 -1.7,1.7 -2.4,2.6 -1.5,1.8 -2.9,3.4 -4.2,5 -0.7,0.8 -1.3,1.5 -1.9,2.2 -0.6,0.7 -1.1,1.4 -1.6,2.1 -1,1.3 -1.9,2.4 -2.6,3.4 -0.7,0.9 -1.3,1.7 -1.7,2.2 -0.4,0.5 -0.6,0.8 -0.6,0.8 l -90.1,-66.2 c 0,0 0.3,-0.4 0.9,-1.2 0.6,-0.8 1.4,-1.9 2.5,-3.3 1.1,-1.4 2.4,-3.1 4,-5.1 0.8,-1 1.6,-2 2.4,-3.1 0.9,-1.1 1.9,-2.2 2.8,-3.4 2,-2.3 4.2,-4.9 6.5,-7.5 1.1,-1.4 2.4,-2.6 3.7,-4 1.3,-1.3 2.6,-2.7 3.9,-4.1 1.3,-1.4 2.7,-2.8 4,-4.2 1.4,-1.4 2.8,-2.8 4.3,-4.2 1.5,-1.4 2.9,-2.8 4.4,-4.2 1.5,-1.4 2.9,-2.9 4.5,-4.2 12.1,-11.1 25.3,-20.9 35.3,-27.9 5.2,-3.4 9.4,-6.1 12.5,-8.1 1.5,-1 2.8,-1.6 3.6,-2.1 0.8,-0.5 1.3,-0.7 1.3,-0.7 z"
   id="path56"
   inkscape:connector-curvature="0"
   style="fill:none" />
				</g>
				<g
   id="g66">
					<line
   class="st6"
   x1="332.39999"
   y1="126.9"
   x2="367"
   y2="191.39999"
   id="line60"
   style="fill:none;stroke:#fbb03b;stroke-width:24.89299965;stroke-miterlimit:10" />
					<line
   class="st6"
   x1="332.39999"
   y1="126.9"
   x2="367"
   y2="191.39999"
   id="line62"
   style="fill:none;stroke:#fbb03b;stroke-width:24.89299965;stroke-miterlimit:10" />
					<path
   class="st7"
   d="m 460.6,188.4 c 0,0 -1.3,0.1 -3.7,0.3 -2.3,0.2 -5.7,0.8 -9.7,1.3 -2,0.2 -4.1,0.7 -6.4,1.1 -1.1,0.2 -2.3,0.4 -3.5,0.7 -1.2,0.2 -2.4,0.4 -3.6,0.7 -2.5,0.6 -5,1.2 -7.6,1.8 -1.3,0.3 -2.6,0.7 -3.9,1.1 -1.3,0.4 -2.6,0.8 -3.9,1.1 -1.3,0.4 -2.6,0.7 -3.9,1.1 -1.3,0.4 -2.5,0.9 -3.8,1.3 -1.3,0.4 -2.5,0.9 -3.7,1.3 -1.2,0.4 -2.5,0.8 -3.6,1.3 -2.3,0.9 -4.6,1.9 -6.8,2.7 -0.5,0.2 -1.1,0.4 -1.6,0.6 -0.5,0.2 -1,0.5 -1.5,0.7 -1,0.5 -1.9,0.9 -2.9,1.3 -1.8,0.8 -3.5,1.6 -5,2.3 -1.5,0.8 -2.7,1.4 -3.8,2 -2.1,1.1 -3.3,1.7 -3.3,1.7 l -52.9,-98.5 c 0,0 1.8,-0.9 5,-2.6 1.6,-0.8 3.5,-1.8 5.7,-3 2.3,-1.1 4.8,-2.2 7.6,-3.5 1.4,-0.6 2.9,-1.3 4.4,-2 0.8,-0.3 1.5,-0.7 2.3,-1 0.8,-0.3 1.6,-0.7 2.4,-1 3.3,-1.3 6.7,-2.7 10.3,-4.1 1.8,-0.7 3.6,-1.4 5.5,-2 1.9,-0.7 3.8,-1.3 5.7,-2 1.9,-0.7 3.8,-1.3 5.8,-2 2,-0.6 3.9,-1.2 5.9,-1.7 2,-0.6 3.9,-1.2 5.9,-1.7 2,-0.6 3.9,-1.2 5.9,-1.6 3.9,-0.9 7.8,-1.9 11.5,-2.8 1.9,-0.5 3.7,-0.8 5.5,-1.1 1.8,-0.3 3.6,-0.7 5.3,-1 3.5,-0.6 6.7,-1.3 9.8,-1.7 6.1,-0.8 11.2,-1.6 14.7,-1.9 3.6,-0.3 5.6,-0.5 5.6,-0.5 z"
   id="path64"
   inkscape:connector-curvature="0"
   style="fill:none" />
				</g>
				<g
   id="g74">
					<line
   class="st6"
   x1="465.79999"
   y1="90.199997"
   x2="469.10001"
   y2="163.39999"
   id="line68"
   style="fill:none;stroke:#fbb03b;stroke-width:24.89299965;stroke-miterlimit:10" />
					<line
   class="st6"
   x1="465.79999"
   y1="90.199997"
   x2="469.10001"
   y2="163.39999"
   id="line70"
   style="fill:none;stroke:#fbb03b;stroke-width:24.89299965;stroke-miterlimit:10" />
					<path
   class="st7"
   d="m 554.9,201 c 0,0 -0.3,-0.1 -0.9,-0.4 -0.6,-0.2 -1.4,-0.6 -2.6,-0.9 -2.2,-0.7 -5.4,-1.8 -9.3,-3 -1.9,-0.5 -4.1,-1.1 -6.3,-1.7 -1.1,-0.3 -2.3,-0.6 -3.4,-1 -1.2,-0.3 -2.4,-0.5 -3.6,-0.8 -2.5,-0.5 -5,-1.1 -7.6,-1.7 -2.6,-0.4 -5.3,-0.9 -7.9,-1.3 -10.7,-1.6 -21.5,-2.5 -29.6,-2.5 -2,0 -3.9,-0.1 -5.5,-0.1 -1.6,0 -3.1,0.1 -4.3,0.1 -2.4,0.1 -3.7,0.1 -3.7,0.1 l -5,-111.7 c 0,0 2,-0.1 5.6,-0.2 1.8,0 4,-0.2 6.5,-0.2 2.5,0 5.3,0.1 8.4,0.1 12.3,0 28.6,1.4 44.8,3.8 4,0.7 8.1,1.4 12.1,2.1 4,0.8 7.8,1.7 11.6,2.5 1.9,0.4 3.7,0.8 5.5,1.3 1.8,0.5 3.5,1 5.2,1.4 3.4,0.9 6.6,1.8 9.6,2.6 5.9,1.9 10.7,3.5 14.1,4.6 1.7,0.5 3,1.1 3.9,1.4 0.9,0.3 1.4,0.5 1.4,0.5 z"
   id="path72"
   inkscape:connector-curvature="0"
   style="fill:none" />
				</g>
				<g
   id="g82">
					<line
   class="st6"
   x1="601.90002"
   y1="114.6"
   x2="573.40002"
   y2="182"
   id="line76"
   style="fill:none;stroke:#fbb03b;stroke-width:24.89299965;stroke-miterlimit:10" />
					<line
   class="st6"
   x1="601.90002"
   y1="114.6"
   x2="573.40002"
   y2="182"
   id="line78"
   style="fill:none;stroke:#fbb03b;stroke-width:24.89299965;stroke-miterlimit:10" />
					<path
   class="st7"
   d="m 634.4,253.1 c 0,0 -0.9,-1 -2.6,-2.7 -0.8,-0.9 -1.9,-1.8 -3.1,-3 -1.2,-1.1 -2.5,-2.4 -4,-3.8 -1.4,-1.4 -3.2,-2.8 -4.9,-4.3 -0.9,-0.8 -1.8,-1.5 -2.7,-2.3 -0.5,-0.4 -0.9,-0.8 -1.4,-1.2 -0.5,-0.4 -1,-0.8 -1.5,-1.2 -2,-1.6 -4.1,-3.2 -6.2,-4.8 -2.1,-1.6 -4.4,-3.1 -6.6,-4.7 -8.9,-6.1 -18.2,-11.6 -25.5,-15 -1.8,-0.9 -3.4,-1.8 -4.9,-2.5 -1.5,-0.7 -2.8,-1.2 -3.9,-1.7 -2.2,-1 -3.4,-1.5 -3.4,-1.5 l 43.6,-102.9 c 0,0 1.9,0.8 5.2,2.3 1.6,0.7 3.6,1.6 5.9,2.6 2.3,1 4.8,2.4 7.5,3.7 11.1,5.4 25.3,13.6 38.8,22.9 3.3,2.4 6.7,4.7 10,7.1 3.2,2.5 6.3,4.9 9.4,7.3 0.8,0.6 1.5,1.2 2.2,1.8 0.7,0.6 1.4,1.2 2.1,1.8 1.4,1.2 2.8,2.4 4.1,3.5 2.7,2.3 5.2,4.4 7.4,6.6 2.2,2.1 4.3,4 6.1,5.7 1.8,1.7 3.4,3.2 4.6,4.5 2.5,2.6 3.9,4 3.9,4 z"
   id="path80"
   inkscape:connector-curvature="0"
   style="fill:none" />
				</g>
				<g
   id="g90">
					<line
   class="st6"
   x1="714.09998"
   y1="195.39999"
   x2="659.29999"
   y2="244"
   id="line84"
   style="fill:none;stroke:#fbb03b;stroke-width:24.89299965;stroke-miterlimit:10" />
					<line
   class="st6"
   x1="714.09998"
   y1="195.39999"
   x2="659.29999"
   y2="244"
   id="line86"
   style="fill:none;stroke:#fbb03b;stroke-width:24.89299965;stroke-miterlimit:10" />
					<path
   class="st7"
   d="m 683.8,334.3 c 0,0 -0.4,-1.3 -1.2,-3.5 -0.4,-1.1 -0.9,-2.5 -1.4,-4 -0.6,-1.5 -1.3,-3.2 -2.1,-5.1 -0.4,-0.9 -0.8,-1.9 -1.2,-2.9 -0.2,-0.5 -0.4,-1 -0.6,-1.5 -0.2,-0.5 -0.5,-1 -0.7,-1.6 -1,-2.1 -2,-4.3 -3,-6.6 -0.5,-1.2 -1.1,-2.3 -1.7,-3.4 -0.6,-1.2 -1.2,-2.3 -1.8,-3.5 -0.6,-1.2 -1.2,-2.4 -1.8,-3.6 -0.7,-1.2 -1.4,-2.3 -2.1,-3.5 -0.7,-1.2 -1.4,-2.3 -2,-3.5 l -1,-1.7 c -0.4,-0.6 -0.7,-1.1 -1.1,-1.7 -1.4,-2.2 -2.9,-4.4 -4.2,-6.5 -1.4,-2.1 -2.9,-4 -4.2,-5.9 -0.7,-0.9 -1.3,-1.9 -2,-2.7 -0.6,-0.9 -1.3,-1.7 -2,-2.5 -1.3,-1.6 -2.4,-3 -3.4,-4.3 -0.5,-0.6 -1,-1.3 -1.4,-1.8 -0.5,-0.5 -0.9,-1 -1.3,-1.5 -1.6,-1.8 -2.5,-2.8 -2.5,-2.8 l 83.8,-74 c 0,0 1.3,1.5 3.7,4.2 0.6,0.7 1.2,1.4 2,2.2 0.7,0.8 1.4,1.7 2.2,2.7 1.6,2 3.3,4.2 5.2,6.6 0.9,1.2 2,2.4 3,3.8 1,1.3 2,2.7 3,4.2 2,2.9 4.3,5.8 6.4,9 2.1,3.2 4.3,6.5 6.5,9.9 0.5,0.8 1.1,1.7 1.6,2.6 0.5,0.9 1,1.8 1.5,2.6 1,1.8 2.1,3.5 3.1,5.3 1,1.8 2.1,3.5 3.1,5.3 1,1.8 1.9,3.6 2.8,5.4 0.9,1.8 1.9,3.6 2.8,5.3 0.9,1.8 1.8,3.5 2.6,5.2 1.6,3.5 3.2,6.9 4.6,10.1 0.4,0.8 0.7,1.6 1.1,2.4 0.3,0.8 0.6,1.6 1,2.3 0.6,1.5 1.2,3 1.8,4.4 1.1,2.9 2.2,5.5 3.1,7.8 0.8,2.4 1.6,4.4 2.2,6.1 1.2,3.4 1.8,5.3 1.8,5.3 z"
   id="path88"
   inkscape:connector-curvature="0"
   style="fill:none" />
				</g>
				<g
   id="g98">
					<line
   class="st6"
   x1="780.59998"
   y1="316.79999"
   x2="710.09998"
   y2="336.79999"
   id="line92"
   style="fill:none;stroke:#fbb03b;stroke-width:24.89299965;stroke-miterlimit:10" />
					<line
   class="st6"
   x1="780.59998"
   y1="316.79999"
   x2="710.09998"
   y2="336.79999"
   id="line94"
   style="fill:none;stroke:#fbb03b;stroke-width:24.89299965;stroke-miterlimit:10" />
					<path
   class="st7"
   d="m 692.8,425.6 c 0,0 0.1,-0.3 0.2,-0.9 0.1,-0.3 0.1,-0.7 0.2,-1.1 0.1,-0.4 0.1,-0.9 0.2,-1.4 0.2,-1 0.4,-2.3 0.6,-3.7 0.1,-0.7 0.1,-1.4 0.2,-2.1 0,-0.4 0.1,-0.7 0.1,-1.1 0,-0.4 0.1,-0.8 0.1,-1.1 0,-0.7 0.1,-1.4 0.1,-2.2 0.1,-0.6 0.1,-1.9 0.1,-3 0,-2.3 0.1,-4.8 0.1,-7.3 0.1,-1.3 0,-2.6 -0.1,-3.9 0,-1.3 -0.1,-2.6 -0.1,-3.9 0,-1.3 -0.1,-2.7 -0.1,-4 0,-1.3 -0.2,-2.7 -0.3,-4 -0.6,-10.8 -2.7,-21.4 -4.2,-29.3 -0.9,-3.9 -1.7,-7.2 -2.3,-9.5 -0.7,-2.3 -1.1,-3.5 -1.1,-3.5 L 794,313 c 0,0 0.6,2 1.6,5.4 0.8,3.5 2,8.5 3.5,14.5 2.5,12.1 5.4,28.3 6.4,44.6 0.2,2 0.4,4.1 0.5,6.1 0.1,2 0.1,4.1 0.2,6.1 0.1,2 0.1,4 0.2,6 0.1,2 0.1,3.9 0.1,5.8 -0.1,3.8 -0.1,7.5 -0.2,11.1 0,1.8 0,3.3 -0.2,5.5 -0.1,2 -0.3,3.9 -0.4,5.8 -0.1,1 -0.2,1.8 -0.2,2.6 -0.1,0.8 -0.2,1.6 -0.3,2.4 -0.2,1.6 -0.4,3.1 -0.5,4.5 -0.4,2.7 -0.7,5 -1,6.9 -0.1,0.9 -0.3,1.8 -0.4,2.5 -0.1,0.7 -0.2,1.3 -0.3,1.8 -0.2,1 -0.3,1.5 -0.3,1.5 z"
   id="path96"
   inkscape:connector-curvature="0"
   style="fill:none" />
				</g>
				<g
   id="g106">
					<line
   class="st6"
   x1="786"
   y1="457.20001"
   x2="714.70001"
   y2="440.39999"
   id="line100"
   style="fill:none;stroke:#fbb03b;stroke-width:24.89299965;stroke-miterlimit:10" />
					<line
   class="st6"
   x1="786"
   y1="457.20001"
   x2="714.70001"
   y2="440.39999"
   id="line102"
   style="fill:none;stroke:#fbb03b;stroke-width:24.89299965;stroke-miterlimit:10" />
					<path
   class="st7"
   d="m 657.2,524 c 0,0 0.7,-1.4 1.9,-3.7 1.2,-2.4 2.8,-5.8 4.8,-9.9 3.8,-8.3 8.7,-19.5 13,-30.8 4.4,-11.3 8.1,-22.7 10.5,-31 1.1,-4.1 2.1,-7.6 2.7,-10 0.3,-1.2 0.5,-2.1 0.7,-2.8 0.2,-0.6 0.2,-1 0.2,-1 l 108.9,25.5 c 0,0 -0.1,0.5 -0.3,1.4 -0.2,0.9 -0.6,2.2 -1,3.9 -0.8,3.4 -2.1,8.2 -3.7,13.8 -3.2,11.3 -8,25.8 -13.4,39.8 -5.4,14.1 -11.3,27.8 -16.1,38 -2.4,5.1 -4.4,9.3 -5.9,12.3 -1.5,3 -2.3,4.6 -2.3,4.6 z"
   id="path104"
   inkscape:connector-curvature="0"
   style="fill:none" />
				</g>
				<g
   id="g114">
					<line
   class="st6"
   x1="738.29999"
   y1="579.70001"
   x2="673.79999"
   y2="545"
   id="line108"
   style="fill:none;stroke:#fbb03b;stroke-width:24.89299965;stroke-miterlimit:10" />
					<line
   class="st6"
   x1="738.29999"
   y1="579.70001"
   x2="673.79999"
   y2="545"
   id="line110"
   style="fill:none;stroke:#fbb03b;stroke-width:24.89299965;stroke-miterlimit:10" />
					<path
   class="st7"
   d="m 607.2,594.4 c 0,0 0.2,-0.2 0.5,-0.4 0.1,0 0.1,0 0.2,-0.1 0.1,-0.1 0.2,-0.2 0.3,-0.3 0.2,-0.2 0.5,-0.4 0.7,-0.5 0.1,-0.1 0.3,-0.2 0.4,-0.3 0.2,-0.1 0.4,-0.3 0.6,-0.5 0.4,-0.3 0.8,-0.7 1.3,-1.1 0.4,-0.3 1,-0.9 1.5,-1.4 0.6,-0.5 1.1,-1.1 1.7,-1.6 0.6,-0.7 1.3,-1.4 2,-2.1 0.3,-0.3 0.7,-0.7 1,-1.1 0.3,-0.3 0.7,-0.8 1.1,-1.2 0.7,-0.8 1.5,-1.7 2.2,-2.5 0.8,-0.8 1.5,-1.9 2.3,-2.8 1.6,-1.9 3.2,-4 4.8,-6.1 6.4,-8.5 12.6,-18.5 17.1,-26 2.2,-3.9 4.1,-7 5.3,-9.4 1.3,-2.3 2,-3.6 2,-3.6 l 98.5,52.8 c 0,0 -0.9,1.7 -2.5,4.6 -1.6,2.9 -4,7.1 -6.8,12.1 -5.9,10 -14,23.2 -24,36.4 -2.5,3.3 -5,6.6 -7.7,9.9 -1.4,1.6 -2.6,3.2 -4,4.8 -1.4,1.6 -2.8,3.2 -4.2,4.7 -0.7,0.8 -1.3,1.5 -2.1,2.3 -0.7,0.8 -1.5,1.5 -2.2,2.3 -1.5,1.5 -2.9,3 -4.3,4.4 -1.5,1.4 -3,2.9 -4.5,4.2 -1.5,1.4 -2.8,2.6 -4.4,3.9 -1.5,1.3 -3,2.5 -4.3,3.6 -0.7,0.6 -1.3,1.1 -2.1,1.7 -0.7,0.5 -1.5,1.1 -2.2,1.6 -1.4,1 -2.7,2 -4,2.9 -0.6,0.4 -1.2,0.9 -1.8,1.2 -0.6,0.4 -1.3,0.8 -1.8,1.2 -4.7,2.9 -7.5,4.5 -7.5,4.5 z"
   id="path112"
   inkscape:connector-curvature="0"
   style="fill:none" />
				</g>
			</g>
		</g>
	</g>
</g></g><g
   inkscape:groupmode="layer"
   id="layer3"
   inkscape:label="letreiro"
   sodipodi:insensitive="true" /></svg>