<?xml version="1.0" encoding="UTF-8" standalone="no"?>
<!-- Generator: Adobe Illustrator 19.0.0, SVG Export Plug-In . SVG Version: 6.00 Build 0)  -->

<svg
   xmlns:dc="http://purl.org/dc/elements/1.1/"
   xmlns:cc="http://creativecommons.org/ns#"
   xmlns:rdf="http://www.w3.org/1999/02/22-rdf-syntax-ns#"
   xmlns:svg="http://www.w3.org/2000/svg"
   xmlns="http://www.w3.org/2000/svg"
   xmlns:sodipodi="http://sodipodi.sourceforge.net/DTD/sodipodi-0.dtd"
   xmlns:inkscape="http://www.inkscape.org/namespaces/inkscape"
   version="1.1"
   id="Layer_1"
   x="0px"
   y="0px"
   viewBox="0 0 512.008 512.008"
   style="enable-background:new 0 0 512.008 512.008;"
   xml:space="preserve"
   sodipodi:docname="bulbo.svg"
   inkscape:version="0.92.4 (5da689c313, 2019-01-14)"><metadata
   id="metadata105"><rdf:RDF><cc:Work
       rdf:about=""><dc:format>image/svg+xml</dc:format><dc:type
         rdf:resource="http://purl.org/dc/dcmitype/StillImage" /></cc:Work></rdf:RDF></metadata><defs
   id="defs103">
	
	
	
	
	
	
	
	
	
	
	
	
	
</defs><sodipodi:namedview
   pagecolor="#ffffff"
   bordercolor="#666666"
   borderopacity="1"
   objecttolerance="10"
   gridtolerance="10"
   guidetolerance="10"
   inkscape:pageopacity="0"
   inkscape:pageshadow="2"
   inkscape:window-width="1366"
   inkscape:window-height="705"
   id="namedview101"
   showgrid="false"
   inkscape:zoom="0.9218606"
   inkscape:cx="288.8038"
   inkscape:cy="281.38521"
   inkscape:window-x="-8"
   inkscape:window-y="-8"
   inkscape:window-maximized="1"
   inkscape:current-layer="Layer_1" />
<g
   id="g4">
		<path
   inkscape:connector-curvature="0"
   id="path2"
   d="m 280.01,464.008 h -48 c -4.422,0 -8,3.578 -8,8 v 8 c 0,17.648 14.352,32 32,32 17.648,0 32,-14.352 32,-32 v -8 c 0,-4.422 -3.578,-8 -8,-8 z"
   style="fill:#868491" />
	</g><g
   id="g8">
		<path
   inkscape:connector-curvature="0"
   id="path6"
   d="M 256.002,464.008 H 232.01 c -4.422,0 -8,3.578 -8,8 v 8 c 0,17.646 14.347,31.995 31.992,31.999 z"
   style="fill:#5c546a" />
	</g><g
   id="g12">
		<path
   inkscape:connector-curvature="0"
   id="path10"
   d="M 381.983,49.895 C 344.592,14.754 295.616,-2.847 244.249,0.375 150.639,6.2 75.014,84.286 72.092,178.149 c -2.156,69.547 34.375,133.578 95.344,167.117 15.156,8.344 24.57,24.367 24.57,41.828 v 60.914 c 0,17.648 14.352,32 32,32 h 64 c 17.648,0 32,-14.352 32,-32 v -60.914 c 0,-17.445 9.484,-33.508 24.766,-41.93 58.742,-32.406 95.234,-94.156 95.234,-161.156 0,-50.578 -21.148,-99.461 -58.023,-134.113 z"
   style="fill:#ffcd00" />
	</g><path
   id="path912"
   d="m 404.07648,170.49507 c -2.97481,-31.67594 36.78462,-2.06521 28.62677,-32.79152 -8.19218,-30.77206 -28.03177,14.65093 -41.17246,-14.35339 -13.1177,-28.964347 34.15882,-13.97014 16.4358,-40.400165 C 390.27799,56.542867 386.1876,105.97615 364.31134,82.818306 342.50943,59.672051 392.17724,58.573655 366.81703,39.311799 341.48545,20.072833 353.64208,68.150241 325.48444,53.34486 297.29243,38.516618 343.93398,21.319962 313.65387,11.331476 283.46532,1.3429992 310.60471,42.858688 279.17476,37.984584 247.7105,33.099044 286.13695,1.7949527 254.30078,2.1896785 222.47039,2.5386373 261.69775,32.961737 230.35361,38.539488 199.03236,44.145864 225.23352,2.0809767 195.24524,12.733079 c -29.98836,10.69212 16.9049,26.750353 -10.88093,42.179271 -27.84299,15.469011 -16.71614,-32.831534 -41.63007,-12.997605 -24.87397,19.845396 24.72516,19.748129 3.45534,43.386401 -21.28705,23.666844 -26.50443,-25.611926 -43.56376,1.235671 -17.116559,26.813303 29.76517,10.634935 17.30535,39.942513 -12.44839,29.26744 -33.386445,-15.6349 -40.829176,15.3031 -7.454186,30.91509 31.675956,0.43477 29.439096,32.14505 -2.25967,31.7331 -36.70448,-3.97596 -33.71253,27.67705 2.991971,31.64162 30.12559,-9.87974 38.28915,20.86939 8.16355,30.74922 -36.012265,8.17505 -22.860207,37.16224 13.094857,28.95857 25.285817,-19.11315 42.997347,7.29401 17.7115,26.42424 -31.39559,19.37627 -9.55368,42.52254 21.83052,23.16909 17.66579,-26.25841 42.99738,-7.01375 25.33156,19.23905 -23.37508,28.48945 4.77116,43.31203 28.1805,14.84541 8.19208,-30.54326 38.41495,-20.56621 30.2343,9.98846 -12.81451,34.49632 18.64975,39.38761 31.41851,4.86265 -2.23675,-31.57877 29.57641,-31.93919 31.84189,-0.37752 -0.90389,36.88762 30.41164,31.28131 31.33274,-5.57778 -12.28818,-29.2103 17.7001,-39.89104 29.98836,-10.66923 11.05258,35.18282 38.86125,19.69665 27.80874,-15.46896 -21.11541,-23.54101 3.75287,-43.39781 24.91392,-19.82247 21.922,29.67368 43.20905,6.01257 21.28694,-23.67836 -27.67713,-15.42902 -10.58347,-42.2365 17.10509,-26.8362 30.37162,20.8922 42.8257,-8.35813 12.43701,-29.29036 -31.16107,-5.65215 -23.71827,-36.59005 7.47705,-30.91509 35.53173,9.95413 37.7857,-21.76186 2.27112,-31.72739 -31.28691,4.78259 -34.27891,-26.89335 z m -48.0488,-59.4732 -73.29461,42.31086 c -3.81003,-3.30089 -8.2265,-5.91527 -13.09486,-7.58004 V 62.45816 c 35.29151,3.369534 66.14935,21.721784 86.38947,48.56371 z m -99.47291,93.08273 c -11.32143,0 -20.49177,-9.20467 -20.49177,-20.50895 0,-11.33284 9.17613,-20.50898 20.49177,-20.50898 v -0.0228 c 11.3214,0 20.51475,9.19326 20.51475,20.53189 0,11.30428 -9.19907,20.50895 -20.51475,20.50895 z M 243.41413,62.789957 v 83.002773 c -4.81681,1.7105 -9.25051,4.21049 -13.01468,7.50566 L 158.96406,112.0859 C 178.64351,85.352706 208.792,66.86315 243.41413,62.789957 Z m -26.21256,128.328483 -72.42504,41.86468 c -6.31001,-14.79968 -9.81119,-31.06954 -9.81119,-48.1575 0,-17.86025 3.89592,-34.78237 10.74942,-50.10259 l 71.48681,41.3212 c -0.4805,2.42562 -0.66938,4.97135 -0.66938,7.5457 0,2.57436 0.18883,5.10869 0.66938,7.52851 z m -59.53614,64.72488 72.73402,-41.93904 c 3.76417,3.24375 8.20356,5.78948 13.01468,7.47705 v 85.50282 c -35.37728,-4.16476 -66.10931,-23.35798 -85.7487,-51.04083 z m 111.97278,51.3612 V 221.4557 c 4.87407,-1.71049 9.28483,-4.3477 13.09486,-7.64288 l 74.58754,43.09455 c -20.18868,27.79735 -51.63001,46.87034 -87.6824,50.29715 z m 100.8001,-73.01436 -74.5303,-43.06603 c 0.49204,-2.42551 0.6808,-4.94842 0.6808,-7.52279 0,-2.57435 -0.18874,-5.12578 -0.6808,-7.5457 l 73.59207,-42.52254 c 7.20821,15.62919 11.33293,32.97457 11.33293,51.30394 0,17.55707 -3.74718,34.23319 -10.3947,49.35312 z"
   inkscape:connector-curvature="0"
   style="fill:#ffff00;fill-opacity:0.94120029;stroke-width:5.7207756" /><g
   id="g16">
		<circle
   id="circle14"
   r="128"
   cy="184.008"
   cx="256.00201"
   style="fill:#ffe671" />
	</g><g
   id="g22">
		<g
   id="g20">
			<path
   inkscape:connector-curvature="0"
   id="path18"
   d="m 283.986,232.008 c -10.633,0 -16.07,-6.203 -20.031,-10.727 -3.492,-3.984 -4.883,-5.273 -8,-5.273 -3.102,0 -4.484,1.289 -7.961,5.266 -3.734,4.273 -9.383,10.734 -20.016,10.734 -10.625,0 -16.273,-6.461 -20.008,-10.734 -3.477,-3.977 -4.859,-5.266 -7.961,-5.266 -4.422,0 -8,-3.578 -8,-8 0,-4.422 3.578,-8 8,-8 10.625,0 16.273,6.461 20.008,10.734 3.477,3.977 4.859,5.266 7.961,5.266 3.102,0 4.492,-1.289 7.969,-5.266 3.734,-4.273 9.383,-10.734 20.008,-10.734 10.633,0 16.07,6.203 20.031,10.727 3.492,3.984 4.883,5.273 8,5.273 3.109,0 4.5,-1.289 7.992,-5.266 3.742,-4.273 9.391,-10.734 20.031,-10.734 4.422,0 8,3.578 8,8 0,4.422 -3.578,8 -8,8 -3.117,0 -4.508,1.289 -8,5.273 -3.742,4.274 -9.39,10.727 -20.023,10.727 z"
   style="fill:#ffffff" />
		</g>
	</g><g
   id="g28">
		<g
   id="g26">
			<path
   inkscape:connector-curvature="0"
   id="path24"
   d="m 232.002,384.008 c -3.68,0 -6.992,-2.555 -7.813,-6.297 l -40,-184 c -0.938,-4.32 1.805,-8.578 6.117,-9.523 4.344,-0.953 8.578,1.805 9.523,6.117 l 40,184 c 0.938,4.32 -1.805,8.578 -6.117,9.523 -0.577,0.126 -1.148,0.18 -1.71,0.18 z"
   style="fill:#5c546a" />
		</g>
	</g><g
   id="g34">
		<g
   id="g32">
			<path
   inkscape:connector-curvature="0"
   id="path30"
   d="m 280.017,384.008 c -0.563,0 -1.133,-0.055 -1.711,-0.18 -4.313,-0.945 -7.055,-5.203 -6.117,-9.523 l 40,-184 c 0.945,-4.313 5.164,-7.063 9.523,-6.117 4.313,0.945 7.055,5.203 6.117,9.523 l -40,184 c -0.819,3.743 -4.132,6.297 -7.812,6.297 z"
   style="fill:#5c546a" />
		</g>
	</g><g
   id="g38">
		<path
   inkscape:connector-curvature="0"
   id="path36"
   d="m 190.633,376.008 c 0.851,3.593 1.374,7.293 1.374,11.086 v 60.914 c 0,17.648 14.352,32 32,32 h 64 c 17.648,0 32,-14.352 32,-32 v -60.914 c 0,-3.79 0.527,-7.491 1.384,-11.086 z"
   style="fill:#b4b6bc" />
	</g><g
   id="g42">
		<path
   inkscape:connector-curvature="0"
   id="path40"
   d="m 256.002,376.008 h -65.369 c 0.851,3.593 1.374,7.293 1.374,11.086 v 60.914 c 0,17.648 14.352,32 32,32 h 31.995 z"
   style="fill:#868491" />
	</g><g
   id="g48">
		<g
   id="g46">
			<rect
   id="rect44"
   height="16"
   width="64"
   style="fill:#868491"
   y="400.008"
   x="256.00201" />
		</g>
	</g><g
   id="g54">
		<g
   id="g52">
			<rect
   id="rect50"
   height="16"
   width="64"
   style="fill:#868491"
   y="432.008"
   x="256.00601" />
		</g>
	</g><g
   id="g60">
		<g
   id="g58">
			<rect
   id="rect56"
   height="16"
   width="64"
   style="fill:#5c546a"
   y="400.008"
   x="192.002" />
		</g>
	</g><g
   id="g66">
		<g
   id="g64">
			<rect
   id="rect62"
   height="16"
   width="64"
   style="fill:#5c546a"
   y="432.008"
   x="192.002" />
		</g>
	</g>
<g
   id="g70">
</g>
<g
   id="g72">
</g>
<g
   id="g74">
</g>
<g
   id="g76">
</g>
<g
   id="g78">
</g>
<g
   id="g80">
</g>
<g
   id="g82">
</g>
<g
   id="g84">
</g>
<g
   id="g86">
</g>
<g
   id="g88">
</g>
<g
   id="g90">
</g>
<g
   id="g92">
</g>
<g
   id="g94">
</g>
<g
   id="g96">
</g>
<g
   id="g98">
</g>
</svg>