<?xml version="1.0" encoding="UTF-8" standalone="no"?>
<!-- Generator: Adobe Illustrator 18.0.0, SVG Export Plug-In . SVG Version: 6.00 Build 0)  -->

<svg
   xmlns:dc="http://purl.org/dc/elements/1.1/"
   xmlns:cc="http://creativecommons.org/ns#"
   xmlns:rdf="http://www.w3.org/1999/02/22-rdf-syntax-ns#"
   xmlns:svg="http://www.w3.org/2000/svg"
   xmlns="http://www.w3.org/2000/svg"
   xmlns:sodipodi="http://sodipodi.sourceforge.net/DTD/sodipodi-0.dtd"
   xmlns:inkscape="http://www.inkscape.org/namespaces/inkscape"
   version="1.1"
   id="Capa_1"
   x="0px"
   y="0px"
   viewBox="0 0 300 300"
   xml:space="preserve"
   sodipodi:docname="elaboraestudos.svg"
   width="300"
   height="300"
   inkscape:version="0.92.4 (5da689c313, 2019-01-14)"><metadata
   id="metadata39"><rdf:RDF><cc:Work
       rdf:about=""><dc:format>image/svg+xml</dc:format><dc:type
         rdf:resource="http://purl.org/dc/dcmitype/StillImage" /><dc:title></dc:title></cc:Work></rdf:RDF></metadata><defs
   id="defs37" /><sodipodi:namedview
   pagecolor="#ffffff"
   bordercolor="#666666"
   borderopacity="1"
   objecttolerance="10"
   gridtolerance="10"
   guidetolerance="10"
   inkscape:pageopacity="0"
   inkscape:pageshadow="2"
   inkscape:window-width="1366"
   inkscape:window-height="705"
   id="namedview35"
   showgrid="false"
   inkscape:zoom="1.1237522"
   inkscape:cx="-1.4152635"
   inkscape:cy="204.20793"
   inkscape:window-x="-8"
   inkscape:window-y="-8"
   inkscape:window-maximized="1"
   inkscape:current-layer="layer1" />
<g
   inkscape:groupmode="layer"
   id="layer2"
   inkscape:label="fundo"><path
     style="opacity:1;fill:#eeb812;fill-opacity:1;fill-rule:evenodd;stroke:#ffffff;stroke-width:7;stroke-miterlimit:4;stroke-dasharray:none;stroke-opacity:1"
     d="m 154.59953,4.4435934 c 135.08167,0.725297 135.53553,1.228981 132,143.4999966 2.82406,142.78822 2.23691,141.44975 -132.5,136.5 -142.405093,2.26653 -136.500003,-0.42756 -136.500003,-138 C 15.297217,5.1044924 14.033417,4.4435934 154.59953,4.4435934 Z"
     id="rect936"
     inkscape:connector-curvature="0"
     sodipodi:nodetypes="ccccc" /></g>
<g
   id="g4"
   transform="translate(0,3)">
</g>
<g
   id="g6"
   transform="translate(0,3)">
</g>
<g
   id="g8"
   transform="translate(0,3)">
</g>
<g
   id="g10"
   transform="translate(0,3)">
</g>
<g
   id="g12"
   transform="translate(0,3)">
</g>
<g
   id="g14"
   transform="translate(0,3)">
</g>
<g
   id="g16"
   transform="translate(0,3)">
</g>
<g
   id="g18"
   transform="translate(0,3)">
</g>
<g
   id="g20"
   transform="translate(0,3)">
</g>
<g
   id="g22"
   transform="translate(0,3)">
</g>
<g
   id="g24"
   transform="translate(0,3)">
</g>
<g
   id="g26"
   transform="translate(0,3)">
</g>
<g
   id="g28"
   transform="translate(0,3)">
</g>
<g
   id="g30"
   transform="translate(0,3)">
</g>
<g
   id="g32"
   transform="translate(0,3)">
</g>
<g
   inkscape:groupmode="layer"
   id="layer1"
   inkscape:label="lista"><g
     id="g907"
     transform="matrix(1.1212326,0,0,1.1212326,-30.309071,-8.9242887)"><path
       id="path869"
       d="m 219.09443,219.60439 c 0.99443,-0.63134 1.2027,-17.44626 1,-80.73467 L 219.8384,58.932458 h -65.5 -65.5 L 88.58235,138.3227 c -0.18649,57.8214 0.0505,79.75966 0.87244,80.74999 0.92999,1.12057 12.32083,1.35707 64.75605,1.34445 34.99516,-0.008 64.19277,-0.37416 64.88359,-0.81275 z"
       style="fill:#ffffff"
       inkscape:connector-curvature="0" /><path
       id="path867"
       d="m 125.00507,201.76578 c -0.36667,-0.36666 -0.66667,-3.01852 -0.66667,-5.89301 0,-3.84325 0.4186,-5.38698 1.58179,-5.83333 2.06554,-0.79261 78.77088,-0.79261 80.83642,0 1.19477,0.45848 1.58179,2.04883 1.58179,6.5 v 5.89301 h -41.33333 c -22.73334,0 -41.63334,-0.3 -42,-0.66667 z"
       style="fill:#eeb812"
       inkscape:connector-curvature="0" /><path
       id="path865"
       d="m 99.5384,199.23245 c -2.11388,-2.11388 -1.44838,-4.07916 1.15965,-3.42458 1.62727,0.40842 2.91688,-0.0235 4.15499,-1.39159 1.99188,-2.20101 4.48536,-2.63937 4.48536,-0.78855 0,1.79627 -5.14268,6.80472 -6.98709,6.80472 -0.8871,0 -2.15291,-0.54 -2.81291,-1.2 z"
       style="fill:#eeb812"
       inkscape:connector-curvature="0" /><path
       id="path863"
       d="m 125.00507,173.76579 c -0.36667,-0.36666 -0.66667,-3.06666 -0.66667,-6 v -5.33334 h 42 42 v 6.00001 6 h -41.33333 c -22.73334,0 -41.63334,-0.3 -42,-0.66667 z"
       style="fill:#eeb812"
       inkscape:connector-curvature="0" /><path
       id="path861"
       d="m 124.75147,146.06652 c -0.29298,-0.7635 -0.39328,-3.581 -0.22288,-6.26112 l 0.30981,-4.87294 h 41.5 41.5 v 6 6 l -41.27712,0.26112 c -34.4658,0.21802 -41.36502,0.032 -41.80981,-1.12706 z"
       style="fill:#eeb812"
       inkscape:connector-curvature="0" /><path
       id="path859"
       d="m 99.5384,143.23246 c -2.11388,-2.11388 -1.44838,-4.07916 1.15965,-3.42458 1.62727,0.40842 2.91688,-0.0235 4.15499,-1.39159 1.85991,-2.05519 4.48536,-2.67597 4.48536,-1.06056 0,0.50781 -1.165,2.30781 -2.58889,4 -2.72245,3.23545 -5.20603,3.88181 -7.21111,1.87673 z"
       style="fill:#eeb812"
       inkscape:connector-curvature="0" /><path
       id="path857"
       d="m 124.7472,118.0554 c -0.29063,-0.75738 -0.38901,-3.56988 -0.21861,-6.25 l 0.30981,-4.87294 h 41.5 41.5 l 0.29772,6.25 0.29771,6.25 h -41.5791 c -34.3869,0 -41.6705,-0.2382 -42.10753,-1.37706 z"
       style="fill:#eeb812"
       inkscape:connector-curvature="0" /><path
       id="path855"
       d="m 99.99339,115.60372 c -2.51753,-2.78184 -2.07156,-4.20458 1.11799,-3.56667 2.01978,0.40396 3.28417,-0.0103 4.65499,-1.525 2.1461,-2.37141 3.57203,-2.68109 3.57203,-0.77576 0,1.24079 -5.99108,7.69617 -7.14262,7.69617 -0.30107,0 -1.29215,-0.82293 -2.20239,-1.82874 z"
       style="fill:#eeb812"
       inkscape:connector-curvature="0" /><path
       id="path853"
       d="m 124.7472,90.055398 c -0.29063,-0.757383 -0.38901,-3.569883 -0.21861,-6.25 l 0.30981,-4.87294 h 41.5 41.5 l 0.29772,6.25 0.29771,6.25 h -41.5791 c -34.3869,0 -41.6705,-0.238199 -42.10753,-1.37706 z"
       style="fill:#eeb812"
       inkscape:connector-curvature="0" /><path
       id="path845"
       d="m 99.99339,86.603717 c -2.30384,-2.545712 -2.06556,-3.491122 0.70466,-2.795841 1.62727,0.408419 2.91688,-0.0235 4.15499,-1.391592 2.01665,-2.228371 4.48538,-2.632269 4.48533,-0.733826 -2e-5,1.068367 -6.1375,6.75 -7.29155,6.75 -0.21915,0 -1.14319,-0.822933 -2.05343,-1.828741 z"
       style="fill:#eeb812"
       inkscape:connector-curvature="0" /></g></g><g
   inkscape:groupmode="layer"
   id="layer3"
   inkscape:label="letreiro"
   sodipodi:insensitive="true" /></svg>