<?xml version="1.0" encoding="UTF-8" standalone="no"?>
<!-- Generator: Adobe Illustrator 18.0.0, SVG Export Plug-In . SVG Version: 6.00 Build 0)  -->

<svg
   xmlns:dc="http://purl.org/dc/elements/1.1/"
   xmlns:cc="http://creativecommons.org/ns#"
   xmlns:rdf="http://www.w3.org/1999/02/22-rdf-syntax-ns#"
   xmlns:svg="http://www.w3.org/2000/svg"
   xmlns="http://www.w3.org/2000/svg"
   xmlns:sodipodi="http://sodipodi.sourceforge.net/DTD/sodipodi-0.dtd"
   xmlns:inkscape="http://www.inkscape.org/namespaces/inkscape"
   version="1.1"
   id="Capa_1"
   x="0px"
   y="0px"
   viewBox="0 0 300 300"
   xml:space="preserve"
   sodipodi:docname="geoprocessamento.svg"
   width="300"
   height="300"
   inkscape:version="0.92.4 (5da689c313, 2019-01-14)"><metadata
   id="metadata39"><rdf:RDF><cc:Work
       rdf:about=""><dc:format>image/svg+xml</dc:format><dc:type
         rdf:resource="http://purl.org/dc/dcmitype/StillImage" /><dc:title></dc:title></cc:Work></rdf:RDF></metadata><defs
   id="defs37" /><sodipodi:namedview
   pagecolor="#ffffff"
   bordercolor="#666666"
   borderopacity="1"
   objecttolerance="10"
   gridtolerance="10"
   guidetolerance="10"
   inkscape:pageopacity="0"
   inkscape:pageshadow="2"
   inkscape:window-width="1366"
   inkscape:window-height="705"
   id="namedview35"
   showgrid="false"
   inkscape:zoom="1.1237522"
   inkscape:cx="162.76684"
   inkscape:cy="204.20793"
   inkscape:window-x="-8"
   inkscape:window-y="-8"
   inkscape:window-maximized="1"
   inkscape:current-layer="layer1" />
<g
   inkscape:groupmode="layer"
   id="layer2"
   inkscape:label="fundo"
   sodipodi:insensitive="true"><path
     style="opacity:1;fill:#ff6600;fill-opacity:1;fill-rule:evenodd;stroke:#ffffff;stroke-width:7;stroke-miterlimit:4;stroke-dasharray:none;stroke-opacity:1"
     d="m 154.59953,4.4435934 c 135.08167,0.725297 135.53553,1.228981 132,143.4999966 2.82406,142.78822 2.23691,141.44975 -132.5,136.5 -142.405093,2.26653 -136.500003,-0.42756 -136.500003,-138 C 15.297217,5.1044924 14.033417,4.4435934 154.59953,4.4435934 Z"
     id="rect936"
     inkscape:connector-curvature="0"
     sodipodi:nodetypes="ccccc" /></g>
<g
   id="g4"
   transform="translate(0,3)">
</g>
<g
   id="g6"
   transform="translate(0,3)">
</g>
<g
   id="g8"
   transform="translate(0,3)">
</g>
<g
   id="g10"
   transform="translate(0,3)">
</g>
<g
   id="g12"
   transform="translate(0,3)">
</g>
<g
   id="g14"
   transform="translate(0,3)">
</g>
<g
   id="g16"
   transform="translate(0,3)">
</g>
<g
   id="g18"
   transform="translate(0,3)">
</g>
<g
   id="g20"
   transform="translate(0,3)">
</g>
<g
   id="g22"
   transform="translate(0,3)">
</g>
<g
   id="g24"
   transform="translate(0,3)">
</g>
<g
   id="g26"
   transform="translate(0,3)">
</g>
<g
   id="g28"
   transform="translate(0,3)">
</g>
<g
   id="g30"
   transform="translate(0,3)">
</g>
<g
   id="g32"
   transform="translate(0,3)">
</g>
<g
   inkscape:groupmode="layer"
   id="layer1"
   inkscape:label="globo"><path
     style="fill:#ffff00;stroke-width:0.57882845"
     d="m 230.87227,196.24813 c 30.28257,-30.28315 31.3644,-78.87406 3.25418,-110.470575 2.01143,-2.245854 1.94428,-5.695672 -0.21359,-7.853545 -2.23486,-2.233699 -5.85601,-2.233699 -8.09087,0 L 213.00326,90.742167 C 202.3013,82.106046 188.69941,76.92611 173.90803,76.92611 c -34.38357,0 -62.35661,27.97362 -62.35661,62.35777 0,14.79081 5.17935,28.3927 13.81605,39.09466 l -12.81873,12.81931 c -2.2337,2.2337 -2.2337,5.85659 0,8.09029 1.11772,1.11714 2.58099,1.67571 4.04543,1.67571 1.3643,0 2.72455,-0.49201 3.80811,-1.46154 15.21046,13.53243 34.35695,20.30298 53.50633,20.30298 1.01353,0 2.02763,-0.0249 3.04058,-0.0625 v 16.97704 h -13.15792 c -3.15925,0 -5.72115,2.56132 -5.72115,5.72114 0,3.15925 2.5619,5.72056 5.72115,5.72056 h 37.75755 c 3.15925,0 5.72114,-2.56131 5.72114,-5.72056 0,-3.15982 -2.56189,-5.72114 -5.72114,-5.72114 h -13.15793 v -18.22152 c 15.57223,-2.82411 30.46838,-10.23716 42.48138,-22.25017 z m -6.04818,-56.96425 c 0,11.98059 -4.16119,23.00612 -11.11234,31.71228 l -7.55372,-7.55371 c 8.64191,-9.67628 14.96098,-20.53626 18.16943,-31.25385 0.32472,2.31937 0.49663,4.68793 0.49663,7.09528 z m -43.50243,-0.67781 31.66018,-31.66018 c 5.95788,11.43765 -0.14181,31.52821 -14.93377,48.38717 z m 8.63844,24.82017 c -12.18376,10.69617 -26.3859,17.17963 -38.07302,17.17963 -2.98386,0 -6.82728,-0.45843 -10.31125,-2.25396 L 173.2308,146.69694 Z M 204.36424,99.381761 173.2308,130.51521 157.85654,115.14095 c 12.18376,-10.69618 26.38531,-17.180213 38.07244,-17.180213 2.45654,5.79e-4 5.49482,0.313146 8.43526,1.421024 z m -39.2243,39.224309 -31.14561,31.14561 c -4.45408,-11.66803 1.75848,-30.54305 15.77366,-46.51698 z m 32.92954,32.92898 7.5514,7.55198 c -8.70558,6.95115 -19.7311,11.11292 -31.71227,11.11292 -2.39635,0 -4.75334,-0.17075 -7.06287,-0.49258 10.58388,-3.17024 21.46296,-9.45458 31.22374,-18.17232 z M 180.96974,88.860396 c -10.5833,3.170822 -21.46296,9.455163 -31.22201,18.172324 l -7.55198,-7.551979 c 8.70616,-6.950573 19.73169,-11.11235 31.71228,-11.11235 2.39577,-5.78e-4 4.75218,0.169597 7.06171,0.492005 z m -46.86427,18.711214 7.55255,7.55255 c -8.64075,9.67685 -14.9604,20.53568 -18.16827,31.25326 -0.32472,-2.31936 -0.49663,-4.68619 -0.49663,-7.09354 0,-11.98117 4.16178,-23.00669 11.11235,-31.71227 z m -5.58396,83.83404 4.72845,-4.72845 c 0.2952,0.20491 0.5904,0.40981 0.89371,0.60314 10.80152,8.96432 24.66388,14.36132 39.76436,14.36132 34.38357,0 62.35719,-27.97363 62.35719,-62.3572 0,-15.08369 -5.38369,-28.93158 -14.32948,-39.727893 -0.20259,-0.317777 -0.41155,-0.629765 -0.62687,-0.938281 l 4.7215,-4.720925 c 23.64746,27.119849 22.56679,68.443579 -3.24896,94.260489 -13.47629,13.4757 -31.17223,20.21327 -48.87338,20.21153 -16.20951,-0.002 -32.42192,-5.65921 -45.38652,-16.96373 z"
     id="path2"
     inkscape:connector-curvature="0" /><path
     style="fill:#ffff00;stroke-width:0.26663524"
     d="m 116.6039,109.21997 c -1.34426,1.11355 -11.24797,3.30531 -18.722844,4.1435 -10.99773,1.23321 -19.924376,0.10172 -25.229119,-3.19789 -9.438507,-5.87087 -13.252829,-16.872415 -9.441379,-27.231516 3.815976,-10.371402 14.975753,-16.346872 26.00532,-13.924476 2.5427,0.558441 6.907662,2.658588 8.880618,4.272774 4.720574,3.862177 9.338094,9.994313 13.474614,17.894437 2.59699,4.959859 5.82082,12.547801 6.2116,14.620261 0.19681,1.04376 -0.4005,2.77818 -1.17881,3.42291 z M 98.569096,95.026616 c 1.882914,-6.80949 -1.32486,-14.328074 -7.466171,-17.499736 -5.573436,-2.878383 -12.850995,-1.787016 -17.460839,2.618498 -1.945089,1.858872 -3.939083,5.719858 -4.328844,8.381974 -0.923732,6.309191 2.399217,12.875168 7.972653,15.753548 4.781757,2.46952 11.290827,1.95364 15.599202,-1.23633 3.030708,-2.24398 4.763179,-4.687835 5.683999,-8.017954 z m -9.401245,1.40847 c -1.142398,1.038886 -2.829648,1.724079 -4.591698,1.864691 -1.941285,0.154916 -4.609109,-0.959637 -5.986482,-2.50101 -2.726791,-3.051462 -2.310563,-8.079584 0.880427,-10.635769 2.442444,-1.956551 5.27317,-2.22493 8.08505,-0.766531 2.561164,1.328333 3.903532,3.383533 4.054385,6.207225 0.092,1.722183 -1.128583,4.637273 -2.441682,5.831394 z"
     id="path868"
     inkscape:connector-curvature="0" /></g><g
   inkscape:groupmode="layer"
   id="layer3"
   inkscape:label="letreiro"
   sodipodi:insensitive="true" /></svg>