<?xml version="1.0" encoding="UTF-8" standalone="no"?>
<!-- Generator: Adobe Illustrator 18.0.0, SVG Export Plug-In . SVG Version: 6.00 Build 0)  -->

<svg
   xmlns:dc="http://purl.org/dc/elements/1.1/"
   xmlns:cc="http://creativecommons.org/ns#"
   xmlns:rdf="http://www.w3.org/1999/02/22-rdf-syntax-ns#"
   xmlns:svg="http://www.w3.org/2000/svg"
   xmlns="http://www.w3.org/2000/svg"
   xmlns:sodipodi="http://sodipodi.sourceforge.net/DTD/sodipodi-0.dtd"
   xmlns:inkscape="http://www.inkscape.org/namespaces/inkscape"
   version="1.1"
   id="Capa_1"
   x="0px"
   y="0px"
   viewBox="0 0 300 300"
   xml:space="preserve"
   sodipodi:docname="licenciamento.svg"
   width="300"
   height="300"
   inkscape:version="0.92.4 (5da689c313, 2019-01-14)"><metadata
   id="metadata39"><rdf:RDF><cc:Work
       rdf:about=""><dc:format>image/svg+xml</dc:format><dc:type
         rdf:resource="http://purl.org/dc/dcmitype/StillImage" /><dc:title /></cc:Work></rdf:RDF></metadata><defs
   id="defs37" /><sodipodi:namedview
   pagecolor="#ffffff"
   bordercolor="#666666"
   borderopacity="1"
   objecttolerance="10"
   gridtolerance="10"
   guidetolerance="10"
   inkscape:pageopacity="0"
   inkscape:pageshadow="2"
   inkscape:window-width="1366"
   inkscape:window-height="705"
   id="namedview35"
   showgrid="false"
   inkscape:zoom="1.1237522"
   inkscape:cx="151.12242"
   inkscape:cy="184.34339"
   inkscape:window-x="-8"
   inkscape:window-y="-8"
   inkscape:window-maximized="1"
   inkscape:current-layer="layer1" />
<g
   inkscape:groupmode="layer"
   id="layer2"
   inkscape:label="fundo"
   sodipodi:insensitive="true"><path
     style="opacity:1;fill:#ffffff;fill-opacity:1;fill-rule:evenodd;stroke:#00000c;stroke-width:7;stroke-miterlimit:4;stroke-dasharray:none;stroke-opacity:1"
     d="m 154.59953,4.4435934 c 135.08167,0.725297 135.53553,1.228981 132,143.4999966 2.82406,142.78822 2.23691,141.44975 -132.5,136.5 -142.405093,2.26653 -136.500003,-0.42756 -136.500003,-138 C 15.297217,5.1044924 14.033417,4.4435934 154.59953,4.4435934 Z"
     id="rect936"
     inkscape:connector-curvature="0"
     sodipodi:nodetypes="ccccc" /></g>
<g
   id="g4"
   transform="translate(0,3)">
</g>
<g
   id="g6"
   transform="translate(0,3)">
</g>
<g
   id="g8"
   transform="translate(0,3)">
</g>
<g
   id="g10"
   transform="translate(0,3)">
</g>
<g
   id="g12"
   transform="translate(0,3)">
</g>
<g
   id="g14"
   transform="translate(0,3)">
</g>
<g
   id="g16"
   transform="translate(0,3)">
</g>
<g
   id="g18"
   transform="translate(0,3)">
</g>
<g
   id="g20"
   transform="translate(0,3)">
</g>
<g
   id="g22"
   transform="translate(0,3)">
</g>
<g
   id="g24"
   transform="translate(0,3)">
</g>
<g
   id="g26"
   transform="translate(0,3)">
</g>
<g
   id="g28"
   transform="translate(0,3)">
</g>
<g
   id="g30"
   transform="translate(0,3)">
</g>
<g
   id="g32"
   transform="translate(0,3)">
</g>
<g
   inkscape:groupmode="layer"
   id="layer1"
   inkscape:label="selo"><path
     style="fill:#008000;stroke-width:0.1629861"
     d="M 52.740224,139.94676 C 50.496999,131.57251 50.360685,123.76303 52.317077,115.70507 54.338249,107.3803 58.666986,99.168975 65.30497,91.067937 70.33053,84.93472 75.328233,79.998543 81.442804,75.128798 89.464752,68.739987 97.766268,63.819732 107.88496,59.456711 c 3.22635,-1.391151 13.18288,-4.850635 16.18218,-5.62264 4.82184,-1.241112 10.31006,-2.330952 13.73954,-2.728378 l 1.24685,-0.14449 -1.77182,0.853124 c -11.1674,5.37703 -19.48015,10.908346 -27.39839,18.230931 -19.52495,18.056174 -31.233892,44.486272 -33.27204,75.103622 -0.635325,9.54394 -0.372477,18.08814 0.750794,24.40558 1.300883,7.31639 2.888402,13.56002 5.144245,20.23203 2.685586,7.94306 5.303529,13.4104 8.382053,17.50516 0.448891,0.59708 0.80316,1.11316 0.787252,1.14685 -0.01587,0.0336 -0.882456,-0.78219 -1.925696,-1.81307 C 78.954225,195.95766 69.760234,179.56229 65.14367,162.74583 l -0.546776,-1.99171 -0.91796,-1.03253 c -4.442473,-4.99695 -7.936101,-10.92598 -10.049457,-17.05492 -0.395957,-1.14841 -0.796172,-2.37236 -0.889206,-2.71993 z m 31.756049,28.69325 c -0.68439,-7.24328 -0.697673,-15.96772 -0.03558,-23.36348 l 0.104104,-1.16287 1.973363,-1.90236 c 9.936701,-9.57926 20.49898,-17.14159 31.52689,-22.57252 2.72089,-1.33996 8.31255,-3.6585 10.00795,-4.14972 0.7677,-0.2224 1.31236,-0.44075 1.21113,-0.48539 -0.36799,-0.16228 -5.10357,0.0946 -7.66568,0.41588 -5.82822,0.73077 -10.3857,1.84823 -16.59417,4.06877 -5.945862,2.12674 -10.302865,4.14377 -15.586427,7.21608 -1.218504,0.70854 -2.233425,1.27888 -2.255362,1.26742 -0.05711,-0.0298 1.003268,-4.24754 1.622829,-6.45489 1.114527,-3.97077 2.658815,-8.36676 4.386672,-12.48713 0.609327,-1.45306 0.965671,-2.08161 1.330041,-2.34598 0.273744,-0.1986 1.687739,-1.17074 3.142231,-2.16029 12.372726,-8.417663 27.012746,-14.572256 39.336296,-16.536793 0.93981,-0.149819 1.72481,-0.306409 1.74443,-0.347984 0.0503,-0.106664 -1.25413,-0.334003 -3.36677,-0.586715 -9.21687,-1.102471 -20.64287,0.298487 -31.18196,3.823252 l -1.54605,0.517149 1.74656,-2.371526 c 3.94641,-5.358557 7.8545,-9.705331 12.61824,-14.034647 1.60909,-1.462363 2.01965,-1.753289 3.5205,-2.494754 10.32873,-5.102666 22.52309,-8.295798 32.28587,-8.454119 0.70245,-0.0114 1.29369,-0.05566 1.31384,-0.09837 0.0551,-0.116767 -2.39689,-0.828983 -4.11402,-1.195073 -4.0243,-0.857993 -9.96951,-1.114861 -14.30208,-0.617959 -0.57373,0.0658 -0.83431,0.03403 -0.7243,-0.08831 0.45237,-0.503089 6.67257,-3.623287 10.98972,-5.512708 3.35246,-1.467226 11.30929,-4.321656 14.95777,-5.36593 6.08365,-1.741301 12.59577,-3.204231 18.8376,-4.231813 3.09189,-0.509008 8.38799,-1.239262 8.52358,-1.175269 0.0377,0.01782 -0.42745,0.663708 -1.03368,1.435359 -2.67242,3.401546 -7.03049,9.825653 -9.75882,14.385201 -7.09998,11.865374 -13.30004,25.319227 -18.08956,39.253539 -1.16676,3.39447 -1.67343,5.00251 -4.08443,12.96272 -3.71193,12.25544 -9.01874,22.28876 -16.28745,30.79393 -12.02004,14.06471 -29.51267,23.33757 -48.885293,25.91411 -2.264763,0.30123 -5.457857,0.55951 -5.455187,0.44128 1.73e-4,-0.0203 -0.09529,-1.05449 -0.212782,-2.29803 z"
     id="path858"
     inkscape:connector-curvature="0" /><g
     id="g949"
     transform="translate(34.70516,41.824167)"><path
       inkscape:connector-curvature="0"
       id="path845"
       d="m 141.52858,227.01952 c -7.86809,-2.63654 -17.48895,-7.43287 -17.48895,-8.71885 0,-0.49184 2.21745,-10.73996 2.73699,-12.64922 0.16749,-0.6155 -0.43591,-1.30941 -3.22515,-3.70888 -3.0733,-2.64383 -8.21062,-7.99436 -9.65294,-10.05356 l -0.54358,-0.77608 -6.93942,1.65793 c -8.063545,1.92648 -6.839432,2.33624 -9.938466,-3.3268 -3.034367,-5.54489 -6.687775,-15.16397 -7.513349,-19.78198 -0.08897,-0.49768 1.291199,-1.53254 5.839131,-4.37818 5.893514,-3.6876 5.954744,-3.73916 5.868924,-4.94297 -0.23169,-3.25018 -0.21459,-15.12834 0.0239,-16.58996 l 0.27042,-1.65742 -3.171848,-1.93675 c -1.74452,-1.06522 -4.501988,-2.79097 -6.12771,-3.83499 l -2.955857,-1.89824 0.913955,-3.33535 c 0.502675,-1.83444 1.467835,-4.88536 2.144798,-6.77981 1.391932,-3.89528 5.482648,-12.28161 6.780668,-13.90099 l 0.859165,-1.07187 6.269309,1.37451 c 3.44813,0.75599 6.52363,1.44281 6.83446,1.52627 0.36598,0.0983 1.73385,-1.17365 3.88183,-3.60955 1.82418,-2.06872 4.85902,-5.09846 6.74407,-6.73276 1.88504,-1.6343 3.42902,-3.232297 3.43105,-3.551106 0.002,-0.318809 -0.67086,-3.46848 -1.49529,-6.999263 -1.74334,-7.466101 -2.16429,-6.325011 3.47681,-9.424599 5.57934,-3.065657 17.29722,-7.44238 19.906,-7.43506 0.457,0.0014 1.34459,1.113044 2.80965,3.519241 1.17788,1.934556 2.85768,4.627967 3.73288,5.985358 l 1.59127,2.467995 2.04228,-0.204489 c 5.1369,-0.514335 8.49938,-0.586336 12.50979,-0.267873 2.78166,0.220889 4.48266,0.219087 4.7542,-0.0049 0.23256,-0.191942 2.00129,-2.876279 3.93054,-5.965186 l 3.50771,-5.616196 1.48369,0.20408 c 5.19382,0.714408 22.14967,7.999221 23.46233,10.080204 0.27173,0.4308 -0.046,2.386186 -1.1907,7.328511 -0.99085,4.277938 -1.42817,6.824165 -1.19689,6.968701 0.20042,0.125272 1.9367,1.602572 3.85838,3.282892 3.08474,2.69731 6.37107,6.13608 8.71423,9.11846 l 0.76119,0.96885 6.79771,-1.62023 c 3.73873,-0.89114 7.0048,-1.54077 7.25794,-1.44363 0.25314,0.0971 1.81467,2.90596 3.47008,6.24183 2.88895,5.82165 6.11342,14.4525 6.57857,17.6087 l 0.21278,1.4438 -5.82835,3.62711 -5.82835,3.6271 v 9.61178 c 0,5.28648 0.10275,9.77804 0.22833,9.98123 0.12559,0.2032 2.74122,1.93892 5.81252,3.85717 4.67017,2.91687 5.58415,3.62867 5.58415,4.34894 0,2.05858 -3.83156,12.41299 -6.75983,18.26777 -2.69006,5.37848 -3.12783,6.05483 -3.919,6.05483 -0.48988,0 -3.68822,-0.66521 -7.10744,-1.47826 l -6.21677,-1.47825 -1.48309,1.63739 c -0.8157,0.90057 -2.32162,2.59386 -3.34648,3.76286 -1.5816,1.80406 -6.32139,6.16079 -8.42059,7.74006 -0.57456,0.43225 -0.50379,0.94373 1.02882,7.43638 1.586,6.7188 1.62155,6.99115 0.97794,7.4932 -0.36735,0.28655 -3.26671,1.81249 -6.44305,3.39098 -5.46601,2.71634 -13.88494,5.85564 -17.00095,6.3394 l -1.4074,0.2185 -3.60948,-5.9849 -3.60948,-5.98489 -3.429,0.27481 c -4.3709,0.35031 -8.69254,0.34914 -12.83238,-0.003 l -3.26726,-0.27828 -2.76062,4.44042 c -3.95024,6.35387 -4.8248,7.48665 -5.77671,7.4823 -0.44543,-0.002 -3.41637,-0.87712 -6.60208,-1.94463 z m 29.87017,-21.88039 c 20.72536,-1.96537 38.78483,-16.0989 45.5469,-35.64548 2.12458,-6.14134 2.89799,-10.87537 2.90293,-17.76866 0.006,-8.90739 -1.39273,-15.08513 -5.33285,-23.54685 -6.92853,-14.87957 -21.78693,-26.15049 -38.69315,-29.350906 -5.06542,-0.958908 -15.12446,-0.877098 -20.01952,0.162815 -10.71922,2.277201 -19.57464,6.999981 -27.11001,14.458331 -4.85409,4.80448 -7.76104,8.77817 -10.4418,14.27357 -4.22308,8.65708 -5.52272,14.2458 -5.53983,23.82256 -0.0163,9.11308 1.08221,14.40167 4.61406,22.21392 2.79088,6.17326 6.1191,10.96706 11.03111,15.88862 10.17581,10.19561 22.23211,15.24593 37.73348,15.80639 0.79409,0.0287 3.18299,-0.11273 5.30868,-0.31431 z"
       style="fill:#000000;stroke-width:0.36094803" /><g
       transform="translate(301.97952,68.42082)"
       id="g940"><path
         inkscape:connector-curvature="0"
         style="fill:#4eb054;stroke-width:0.21187378"
         d="m -139.85942,136.6501 c -12.80264,-0.72346 -25.37518,-6.49125 -34.61167,-15.87847 -8.54287,-8.68229 -13.66526,-19.25272 -15.29967,-31.571989 -0.13141,-0.990512 -0.23893,-3.850814 -0.23893,-6.356227 0,-6.458732 0.71457,-11.102861 2.57541,-16.738065 5.42018,-16.413997 18.13071,-29.124587 34.54464,-34.544788 5.63518,-1.860847 10.2793,-2.57542 16.738,-2.57542 6.45923,0 11.1039,0.714728 16.73799,2.575666 19.588073,6.469938 33.595951,23.096178 36.678771,43.534811 0.4865,3.225395 0.59888,11.096167 0.20141,14.104023 -1.64056,12.414339 -6.86343,23.107759 -15.508876,31.753249 -6.157955,6.15797 -13.121425,10.4501 -21.371305,13.17278 -6.43319,2.12313 -13.06254,2.94165 -20.44577,2.52443 z"
         id="path936" /><path
         inkscape:connector-curvature="0"
         style="fill:#ffffff;stroke-width:0.21187378"
         d="m -136.29222,108.59334 c 0.63916,-0.30237 1.52816,-0.90867 1.97555,-1.34732 0.44739,-0.43866 2.45193,-3.22455 4.45453,-6.19088 2.00261,-2.966336 5.58433,-8.253637 7.95936,-11.749562 13.44006,-19.783094 14.7667,-21.78628 15.10733,-22.81187 0.25582,-0.770173 0.33019,-1.5165 0.26003,-2.60961 -0.17123,-2.668186 -1.52154,-4.687845 -3.92541,-5.871279 -1.23773,-0.609325 -1.62079,-0.695069 -3.11624,-0.69749 -1.86796,-0.003 -3.36238,0.525325 -4.70998,1.6652 -0.37089,0.313709 -4.37163,6.025718 -8.89055,12.693352 -11.5569,17.052122 -13.13074,19.326691 -13.37268,19.326691 -0.11748,0 -2.61276,-2.192898 -5.54506,-4.873107 -2.9323,-2.68021 -5.78566,-5.134368 -6.34081,-5.453684 -1.39482,-0.802287 -2.9641,-1.071327 -4.56045,-0.781852 -3.11085,0.564107 -5.26942,2.674451 -5.85944,5.728542 -0.29834,1.544283 -0.0907,2.83743 0.71293,4.440509 0.57628,1.149515 1.20357,1.826159 4.38038,4.725001 2.03928,1.860847 6.00006,5.495129 8.80174,8.076189 2.80168,2.58105 5.3916,4.91288 5.75537,5.18183 1.87008,1.3826 4.68005,1.60589 6.9134,0.54934 z"
         id="path877-3" /></g><path
       style="fill:#0e853a;stroke-width:0.21187378"
       d="m 162.1201,205.07092 c -11.96992,-1.3849 -20.52995,-4.79793 -29.34446,-11.70016 -2.2019,-1.7242 -7.20296,-6.85237 -8.92352,-9.15032 -4.40538,-5.88376 -7.32749,-11.72302 -9.10487,-18.1943 -4.64056,-16.89588 -1.10165,-34.16184 9.84165,-48.0164 1.53488,-1.9432 6.30672,-6.71965 8.18674,-8.19465 13.97546,-10.96466 31.1171,-14.4753 48.01618,-9.833813 8.76655,2.407813 16.54211,6.960053 23.18972,13.576583 4.00466,3.98592 6.58884,7.3384 9.16298,11.88725 3.05881,5.40533 5.31882,12.07339 6.31265,18.62516 0.4763,3.13994 0.54643,11.26331 0.12255,14.19557 -1.48707,10.28723 -5.16778,18.96842 -11.36372,26.80209 -1.61795,2.04561 -6.33685,6.76454 -8.38245,8.38249 -7.62464,6.03066 -16.11144,9.70402 -25.95448,11.23394 -2.01224,0.31277 -10.09907,0.57861 -11.75897,0.38656 z m 12.7124,-8.20721 c 18.73236,-3.59929 33.22021,-18.08851 36.7935,-36.79694 0.43254,-2.26463 0.56869,-3.75307 0.6538,-7.14721 0.15507,-6.18456 -0.4253,-10.32207 -2.21607,-15.79872 -5.55915,-17.00131 -20.67966,-29.23824 -38.69693,-31.31717 -3.43565,-0.39642 -10.03866,-0.1385 -13.53484,0.5287 -7.18268,1.37071 -14.4424,4.67959 -20.16652,9.19161 -1.92791,1.51966 -5.8559,5.44767 -7.37555,7.37558 -4.512,5.72414 -7.82087,12.9839 -9.19157,20.16661 -0.44187,2.31546 -0.57742,3.78402 -0.66259,7.17868 -0.15573,6.2063 0.4148,10.321 2.17561,15.69054 5.51648,16.82244 19.87044,28.74867 37.70784,31.33018 1.25886,0.18219 3.56282,0.25418 6.77994,0.21185 4.19442,-0.0552 5.27143,-0.14067 7.73338,-0.61371 z"
       id="path875"
       inkscape:connector-curvature="0" /></g></g><g
   inkscape:groupmode="layer"
   id="layer3"
   inkscape:label="letreiro"
   sodipodi:insensitive="true" /></svg>