<?xml version="1.0" encoding="UTF-8" standalone="no"?>
<!-- Creator: CorelDRAW -->

<svg
   xmlns:dc="http://purl.org/dc/elements/1.1/"
   xmlns:cc="http://creativecommons.org/ns#"
   xmlns:rdf="http://www.w3.org/1999/02/22-rdf-syntax-ns#"
   xmlns:svg="http://www.w3.org/2000/svg"
   xmlns="http://www.w3.org/2000/svg"
   xmlns:sodipodi="http://sodipodi.sourceforge.net/DTD/sodipodi-0.dtd"
   xmlns:inkscape="http://www.inkscape.org/namespaces/inkscape"
   xml:space="preserve"
   width="230mm"
   height="190mm"
   version="1.0"
   style="clip-rule:evenodd;fill-rule:evenodd;image-rendering:optimizeQuality;shape-rendering:geometricPrecision;text-rendering:geometricPrecision"
   viewBox="0 0 23000 19000"
   id="svg172"
   sodipodi:docname="minasgerais.svg"
   inkscape:version="0.92.4 (5da689c313, 2019-01-14)"><metadata
   id="metadata176"><rdf:RDF><cc:Work
       rdf:about=""><dc:format>image/svg+xml</dc:format><dc:type
         rdf:resource="http://purl.org/dc/dcmitype/StillImage" /><dc:title></dc:title></cc:Work></rdf:RDF></metadata><sodipodi:namedview
   pagecolor="#ffffff"
   bordercolor="#666666"
   borderopacity="1"
   objecttolerance="10"
   gridtolerance="10"
   guidetolerance="10"
   inkscape:pageopacity="0"
   inkscape:pageshadow="2"
   inkscape:window-width="1366"
   inkscape:window-height="705"
   id="namedview174"
   showgrid="false"
   inkscape:zoom="0.42050406"
   inkscape:cx="803.55559"
   inkscape:cy="374.1876"
   inkscape:window-x="-8"
   inkscape:window-y="-8"
   inkscape:window-maximized="1"
   inkscape:current-layer="svg172" />
 <defs
   id="defs4">
  <style
   type="text/css"
   id="style2">
   <![CDATA[
    .str4 {stroke:black;stroke-width:10;stroke-miterlimit:3.864;stroke-opacity:0.501961}
    .str0 {stroke:#2B2A29;stroke-width:75;stroke-miterlimit:22.9256}
    .str6 {stroke:black;stroke-width:50;stroke-miterlimit:22.9256}
    .str2 {stroke:#003399;stroke-width:20;stroke-miterlimit:22.9256}
    .str3 {stroke:black;stroke-width:10;stroke-miterlimit:22.9256}
    .str5 {stroke:black;stroke-width:10;stroke-miterlimit:3.864}
    .str1 {stroke:#003399;stroke-width:10;stroke-miterlimit:22.9256}
    .fil3 {fill:none}
    .fil0 {fill:#FEFEFE}
    .fil1 {fill:#2B2A29}
    .fil2 {fill:#A2D9F7}
    .fil4 {fill:#94ADBD}
    .fil8 {fill:#FEFEFE;fill-rule:nonzero}
    .fil7 {fill:#D9DADA;fill-rule:nonzero}
    .fil6 {fill:black;fill-rule:nonzero}
    .fil5 {fill:#FEFEFE;fill-rule:nonzero;fill-opacity:0.501961}
   ]]>
  </style>
 
  
  
  
  
  
  
  
  
  
  
  
  
  
  
  
  
  
  
  
  
  
  
  
  
  
  
  
  
  
  
  
  
  
  
  
  
  
  
  
  
  
  
  
  
  
  
  
  
  
  
  
  
  
  
 </defs>
<path
   style="fill:#ff7f2a;stroke:#000000;stroke-width:50;stroke-miterlimit:22.92560005"
   d="m 13873.516,676.61442 c -20.582,-0.2122 -37.978,8.5463 -61.341,26.665 -65.548,50.8399 -89.13,-27.7665 -168,18.6036 -69.008,40.5599 -73.792,17.8512 -132.291,42.5813 -56.269,23.7799 -128.918,85.3569 -183.089,89.2968 -85.68,6.2302 -108.194,55.5866 -179.266,78.8067 -48.077,15.7099 -133.17,70.76598 -161.851,111.77618 -48.739,69.6698 -176.824,94.1109 -232.854,146.7609 -38.939,36.59 -78.918,59.749 -85.99,117.4088 -4.718,38.44 -12.369,57.6147 -56.74,68.8848 -59.902,15.2199 -126.521,77.6862 -180.66,113.0163 -30.073,19.6199 -76.705,64.8615 -99.788,78.9617 -38.549,23.5598 -65.661,59.0764 -95.964,88.0565 -42.569,40.7101 -43.027,36.9983 -104.127,26.4583 l -17.518,-1.6536 c -130.77,-12.3399 -139.499,2.9147 -233.577,86.1446 -29.321,25.93 -54.742,46.9387 -83.613,71.7786 -36.96,31.7899 -156.38,159.7866 -194.458,167.5868 -54.571,11.1699 -38.603,15.8051 -71.573,54.7254 -71.768,84.7 -154.76,16.5227 -242.62,32.7628 -27.57,5.0898 -85.638,88.0914 -100.46,114.1015 -25.119,44.11 -87.945,22.1248 -89.866,104.9547 -1.217,52.71 -83.436,76.631 -122.936,92.8111 -79.462,32.5299 -220.395,23.3145 -276.005,68.8845 -61.079,50.0602 -80.058,-10.7717 -115.858,-9.9219 -39.05,0.93 -81.346,51.3514 -89.244,87.2816 -16.841,76.65 -94.189,-12.0973 -136.79,93.7926 -48.218,119.86 -70.728,-4.138 -99.528,-34.468 -35.571,-37.4701 -16.709,-54.2065 28.99,-60.6166 31.61,-4.4299 67.948,-36.218 72.348,-69.2981 12.671,-95.1399 30.123,-71.6338 88.212,-134.8237 26.45,-28.7801 41.881,-35.1309 64.492,-56.7407 53.97,-51.6001 63.942,-27.8471 97.512,-37.207 51.861,-14.46 32.748,-40.0886 18.087,-71.7786 -5.479,-11.8401 -57.536,-63.7852 -68.678,-71.6753 -33.75,-23.92 -47.818,-35.4783 -78.909,-61.2881 -41.931,-34.8102 -26.834,-30.9417 -52.813,-61.0817 -22.921,-26.5801 -30.383,-31.6188 -55.862,-28.3186 -7.98,1.03 -17.69,2.9075 -30.231,5.1675 -8.52,2.9001 -26.041,37.3357 -29.922,46.7157 -19.068,46.1698 -98.507,65.0211 -145.105,41.3411 -74.782,-38 -51.279,-11.475 -82.839,27.5953 -20.86,25.8299 -78.912,-7.9211 -96.5829,-22.2211 -50.901,-41.18 -73.917,-0.4193 -104.437,-23.4093 -59.092,-44.5201 -29.284,-82.4153 -57.724,-133.9453 -29.839,-54.0901 53.88,-58.5634 -102.319,-158.2332 -52.11,-33.2502 -87.017,-72.4567 -146.296,-96.9968 -52.449,-21.7199 -43.363,-69.8476 -86.403,-13.7975 -8.369,10.9 -52.353,53.1117 -52.504,53.3818 -17.06,31.7 -39.814,59.7339 -67.024,83.6642 -29.721,26.14 16.1,105.6409 34.158,129.5011 32.372,42.7998 -31.539,114.5151 4.342,176.785 32.76,56.86 31.271,62.8089 12.091,126.9691 -17.629,58.9698 53.581,39.3308 52.401,66.9208 -1.709,40.15 -72.131,46.0369 -95.912,54.157 -42.521,14.5299 -32.141,38.4471 -81.751,38.4471 -48.752,0 -77.803,-20.1123 -96.842,-21.6524 -28.142,-2.2799 -104.556,-64.4557 -149.654,-73.8455 -48.94,-10.1801 -157.279,-35.2554 -197.199,-63.6653 -31.899,-22.7201 -80.413,21.0132 -99.632,44.4933 -43.839,53.58 -105.341,41.0128 -78.962,94.4129 46.731,94.6399 93.4,58.8933 19.431,159.1633 l -2.119,3.8759 c -16.479,54.5097 -62.191,97.1838 -34.261,144.694 34.581,58.8198 74.975,2.636 77.824,59.3762 3.339,66.48 0.434,41.3959 46.302,83.0955 55.092,50.06 62.654,41.1711 27.543,102.6811 -24.548,43.02 16.939,47.8819 -46.302,89.1419 -35.189,22.96 -49.448,46.7883 -74.517,62.8385 -28.408,18.1999 -42.063,75.2898 -33.745,103.2497 15.28,51.35 -37.306,101.4828 -12.557,156.3727 7.4,16.41 83.915,84.4418 101.285,97.1518 59.6,43.6301 64.466,120.8305 71.366,187.7404 4.67,45.28 4.231,40.3516 32.97,88.8317 2.31,5.17 1.82,3.9788 2.738,9.5086 12.37,74.5202 38.603,49.0829 38.603,104.593 0,77.6801 -59.738,65.0317 -33.538,114.1016 48.471,90.76 -46.615,70.5072 -103.095,83.1474 -45.429,10.16 -188.275,59.1024 -223.086,57.4125 -40.381,-1.95 -133.126,21.2288 -163.815,45.8888 -88.73,71.2901 -68.376,-22.7378 -111.466,-22.7378 -19.86,0 -71.128,64.8486 -93.07,81.0286 -49.908,36.7999 -70.199,79.375 -136.84,79.375 -61.409,0 -61.277,-35.2525 -96.477,23.0479 -4.03,6.6797 -6.358,13.2419 -7.596,19.7919 -6.631,35.0499 18.018,69.7738 -15.402,117.5639 -25.22,36.0701 -27.924,75.7674 -41.444,117.9774 -27.9,87.1601 17.611,94.8148 23.72,123.4549 15.15,71.02 6.27,85.9017 -36.38,150.4818 -54.52,138.49 -103.487,114.1155 -136.425,187.5856 -37.431,83.48 22.265,60.3715 -48.524,184.3815 -42.45,74.3698 3.1,109.629 58.599,146.0891 54.121,35.55 56.973,91.43 130.173,115.2901 44.151,14.3899 151.963,66.1075 168.672,108.7273 29.26,74.6501 0.5,97.3826 54.467,163.4525 28.929,35.42 30.665,124.0353 44.185,169.3954 5.059,16.95 7.573,33.6531 8.731,51.263 22.292,108.8001 26.692,97.8726 77.722,173.3227 39.23,57.9999 54.205,111.087 6.614,168.5169 -30.249,36.5101 -13.986,-7.5973 -41.238,58.3427 -21.079,51.0399 -76.075,16.241 -89.296,57.9809 -27.3,86.1901 -89.565,2.7856 -133.946,126.5556 -25.17,70.2001 -85.553,11.2103 -98.753,114.9801 -2.839,22.3102 -51.017,58.2108 -68.937,74.3107 -46.21,41.5401 -56.878,35.5086 -51.107,97.979 3.321,36.029 -20.434,99.154 -49.093,112.344 -27.549,12.67 -11.814,-25.299 -48.525,12.351 -28.559,29.29 -101.137,-2.773 -119.835,75.447 -5.032,21.03 -0.02,110.817 5.786,130.277 10.2,34.23 33.695,143.374 49.766,162.264 38.298,45.01 85.992,12.243 144.693,9.043 64.619,-3.53 162.57,-32.151 207.79,38.499 51.43,44.28 59.031,66.189 69.04,128.829 17.291,108.29 -60.78,99.923 -65.629,202.314 -3.66,77.28 -83.744,70.34 -108.054,206.86 -18.052,101.4 -4.352,132.404 32.967,225.154 35.923,89.26 52.769,141.84 107.178,224.69 l 29.456,44.803 c 5.091,7.74 3.94,3.639 -3.101,5.219 -27.429,6.13 -123.383,63.288 -123.714,63.407 -85.659,30.701 -157.453,113.324 -198.022,127.434 -16.992,5.9 -62.174,34.644 -74.983,45.114 -93.12,76.16 -92.144,-3.758 -169.653,121.801 -22.231,36.021 -107.487,18.013 -107.487,92.553 0,52.28 21.582,18.007 3.77,99.167 -33.909,39.44 -27.08,0.04 -55.552,1.188 -29.189,1.17 -24.778,77.453 -77.928,55.553 -25.958,-10.69 -83.044,-12.561 -84.283,23.719 -1.249,36.6099 5.652,61.1329 -39.687,75.2929 -45.89,14.33 -90.154,-38.429 -123.095,34.261 -30.21,66.651 -22.749,-4.366 -84.799,53.124 -45.622,42.27 -66.91,25.966 -122.319,41.186 -9.83,2.69 -27.34,-5.031 -37.622,-6.201 -13.858,-5.95 -29.509,-8.88 -41.597,-17.88 -19.611,-14.6 -24.876,-15.942 -39.016,-26.872 -31.681,-24.47 -61.328,-30.204 -91.726,-45.424 -70.881,-35.51 -134.077,10.732 -190.687,-43.408 -40.609,-38.83 -108.31,-116.4809 -168.619,-120.8709 -76.621,-5.59 -124.299,-5.305 -186.709,47.955 -41.809,35.6899 -91.628,2.69 -142.989,-12.66 -47.879,-14.31 -134.458,-6.764 -153.789,-12.454 -55.599,-16.36 -17.52,-22.383 -113.842,-42.323 -79.719,-39.41 -66.029,-31.245 -143.661,-7.545 -57.7,17.61 -51.234,31.468 -120.973,17.208 -61.952,-12.67 -204.713,31.423 -260.863,58.033 -60.341,28.5999 -52.062,-11.808 -101.441,-41.238 -46.469,-27.69 -12.253,-46.456 -90.382,-49.196 -77.84,-2.73 -73.988,-30.591 -155.599,28.009 -39.248,28.18 -106.727,111.9039 -139.578,125.2629 -11.258,4.581 -39.227,13.339 -49.247,20.309 -12.61,-8.18 -24.886,-16.968 -37.827,-24.598 -6.26,-3.69 -25.022,-4.942 -31.832,-2.842 -86.299,26.64 -66.207,8.198 -140.147,87.178 -4.771,5.09 -109.059,151.925 -115.599,165.675 -75.542,158.85 -151.874,54.398 -190.895,165.778 -11.919,34.03 -57.451,73.484 -89.503,65.164 -59.46,-15.44 -15.595,-67.246 -95.705,-96.066 -26.638,-9.59 -42.908,-77.639 -52.348,-104.749 -20.069,-57.65 -57.973,-116.689 -120.044,-60.719 -27.779,25.04 -58.708,126.073 -105.108,95.343 -32.592,-21.58 -93.536,68.259 -122.217,58.549 -48.76,-16.5 -98.393,70.81 -147.174,54.57 -82.831,-27.57 -68.011,67.127 -152.032,43.977 -53.83,-14.83 -65.022,-30.558 -129.554,-44.028 -31.728,11.43 -41.801,11.354 -64.801,30.954 -43.821,37.36 -78.193,-23.753 -144.333,-30.593 -90.919,-9.39 -81.968,-2.15 -131.31,68.11 -29.12,41.47 -154.866,65.661 -202.727,55.811 -74.348,-15.29 -104.074,17.733 -173.423,18.603 -14.193,0.185 -91.816,40.262 -105.215,53.072 -35.21,33.67 7.496,71.634 -128.674,161.644 -33.132,21.9 -37.817,64.505 -93.327,107.745 -38.841,30.24 -48.802,109.1857 -113.792,156.7857 -21.259,15.57 -49.21,63.84 -28.009,86.3 7.811,8.281 15.96,64.701 15.452,75.861 -7.721,23.721 -14.843,47.657 -23.204,71.158 -0.849,2.389 -11.695,23.704 -12.816,26.304 -30.438,70.79 -42.971,115.739 -110.742,162.16 -122.43,83.839 -194.969,-18.939 -246.29,99.632 -47.609,110.01 -95.644,1.272 -108.056,86.972 -14.279,98.55 -78.441,89.206 -127.33,156.166 -100.539,137.691 -83.283,124.805 -100.873,280.707 -2,17.78 11.306,22.159 24.805,34.829 46.49,43.67 101.364,117.332 -11.266,114.102 -23.289,-0.659 -105.00004,-49.905 -122.67904,-67.955 -16.489,-16.84 -28.261,-22.801 -36.381,-21.6 -27.969,4.14 -12.295,93.55 6.615,119.32 42.939,58.481 11.869,143.409 -54.57,142.059 -69.451,-1.421 -66.887,100.171 -71.107,146.761 -6.699,74.07 -74.861,153.818 -60.772,220.348 9.612,45.38 20.949,85.584 31.419,131.103 9.991,43.441 7.056,108.802 14.936,146.762 9.559,46.019 0.96,61.331 -0.31,102.061 -2.328,74.219 -7.94,97.49 21.601,168.62 2.828,5.36 19.605,39.449 19.947,49.609 0.201,5.98 34.668,-15.353 38.809,-17.363 38.841,-18.85 55.898,-20.779 96.171,-47.129 32.437,-21.23 53.75504,-35.923 83.45404,-61.133 23.802,-20.2 53.385,-31.226 81.495,-55.966 31.71,-27.91 153.434,-58.024 197.715,-64.544 61.06,-8.99 175.421,-83.534 215.49,-126.504 31.451,-33.73 68.093,-62.723 101.494,-96.893 26.019,-26.61 39.751,-37.718 67.59,-61.288 l 70.126,-43.615 c 74.22,10.2 61.05,9.519 118.03,36.948 39.569,19.05 75.827,58.092 117.719,84.491 11.289,7.12 59.372,42.164 64.182,44.184 17.198,7.25 33.004,17.511 49.506,26.251 26.901,1.731 47.361,5.917 73.742,5.737 59.389,-0.4 102.616,6.959 164.537,-0.621 133.08,-16.289 234.381,-6.095 348.35,67.955 57.089,37.08 169.32,66.729 235.749,77.05 12.949,2.011 24.398,4.744 36.949,6.924 58.669,-8.271 77.158,-18.457 131.567,-35.657 65.971,-20.85 103.291,-14.977 168.622,-4.806 115.721,18.031 197.003,-21.548 303.752,-21.548 80.251,0 119.266,14.705 188.516,53.174 8.08,4.481 45.921,27.204 52.4,33.694 34.431,43.72 43.056,46.119 91.364,52.038 75.091,9.19 185.353,-117.298 245.155,-28.267 10.668,15.88 -70.298,119.478 -81.857,150.947 -32.941,89.68 -11.465,100.77 -12.817,185.57 -0.719,44.89 38.37,235.233 62.839,267.063 38.47,50.02 155.906,114.946 219.935,89.866 82.171,-32.2 114.133,-129.083 144.023,-204.794 35.311,-89.469 152.421,-141.274 188.36,-8.785 22.68,83.641 7.051,141.296 14.47,225.826 8.53,97.13 29.204,126.364 80.875,207.584 65.4,102.83 151.458,-34.533 149.138,-77.773 -4.321,-80.67 -37.227,-123.668 -36.278,-186.138 0.94,-62.301 69.872,-76.556 88.522,-171.876 19.021,-97.171 82.439,-118.21 173.22,-117.099 110.358,1.36 84.394,88.588 236.575,12.919 39.65,-19.71 45.22,-21.63 87.228,-29.3 73.99,-13.51 69.215,1.029 130.225,0 61.449,-1.04 80.859,0.377 142.369,-21.394 78.881,-27.909 174.594,-64.744 245.825,-2.584 46.109,40.25 131.68,88.783 167.69,9.612 19.04,-41.839 -80.872,-173.31 -35.502,-197.611 42.191,-22.589 87.493,81.605 106.762,104.025 44.842,52.18 68.829,60.383 116.74,103.094 60.679,54.109 190.185,6.672 209.185,-71.468 9.44,-38.849 38.727,-128.763 92.035,-125.574 38.841,2.331 56.74,180.953 134.358,143.712 82.05,-39.37 -25.858,-182.254 135.393,-252.284 20.711,-8.99 69.985,-1.996 106.764,-9.147 99.849,-19.429 148.484,-32.096 209.444,71.985 35.161,60.019 49.962,124.434 107.331,30.024 28.53,-46.969 64.249,-53.242 105.99,-73.742 1.701,-0.83 3.005,-2.447 4.805,-3.049 19.65,-6.59 119.205,-47.476 143.454,-47.956 22.13,-0.431 62.717,36.335 68.628,56.276 21.098,71.109 27.765,107.45 98.803,143.971 41.132,21.138 65.68,14.998 111.519,56.637 57.06,51.83 34.684,84.96 105.265,151.05 23.72,22.209 55.978,49.873 89.659,74.052 -27.641,69.491 -47.059,107.893 -82.217,169.913 -35.93,63.37 -26.281,121.122 -27.442,191.151 -0.638,38.311 32.284,130.533 62.995,156.114 31.94,26.61 40.478,46.363 86.558,66.973 22.49,10.049 123.682,58.356 133.22,75.086 15.791,27.68 17.293,159.978 45.064,211.408 20.328,37.67 59.161,144.973 -8.268,159.163 -42.341,8.91 -67.892,2.538 -117.824,12.919 l -4.961,0.724 c -0.487,13.979 6.4,112.271 -17.259,123.351 -91.911,43.051 -28.046,67.066 -43.926,98.237 -39.1,76.731 -44.868,96.353 -5.527,181.643 33.567,72.77 67.773,18.786 87.643,155.856 9.869,68.04 36.658,60.702 38.497,130.742 0.95,36.16 24.643,164.504 41.031,192.804 25.94,44.79 24.771,110.485 49.041,127.435 13.801,9.639 24.559,-15.723 79.79,48.937 34.05,39.85 37.5,60 58.6,108.831 l 4.805,12.867 c 10.602,61.5 35.526,119.74 36.536,183.4 0.238,15.32 13.957,107.642 32.917,107.642 18.69,0 26.731,-7.98 66.871,-6.46 21,0.799 160.793,-28.804 180.763,-39.274 69.89,-36.63 59.55,-58.608 98.909,-84.077 20.151,-13.041 110.059,8.627 130.379,31.677 18.391,20.87 67.167,68.921 92.348,33.641 11.628,-16.3 67.627,-84.584 88.728,-58.704 37.758,46.32 13.25,16.023 25.27,66.973 8.049,34.11 84.026,64.492 117.975,64.492 48.803,0 100.232,37.38 98.34,89.71 -1.037,28.81 2.273,50.861 18.191,74.311 25.611,37.74 10.279,127.953 -5.89,167.483 -6.641,16.23 -101.703,177.793 -110.122,183.193 -36.132,23.15 -47.564,4.419 -87.953,62.839 -26.76,38.7 57.975,77.873 -27.234,130.793 -38.801,24.11 -96.506,84.611 -53.485,128.261 10.049,10.21 19.293,16.37 25.061,29.92 -18.327,74.73 -49.072,121.672 -2.22,184.382 12.56,16.81 55.603,104.666 37.362,120.716 -36.19,31.84 -68.897,19.605 -48.628,70.435 20.08,50.32 -92.49,62.908 -67.799,104.438 19.698,33.14 90.683,0.779 123.714,64.079 10.768,20.64 25.762,30.698 15.864,62.838 -7.31,23.72 -53.483,27.108 -82.682,108.727 -9.652,27 -13.729,30.954 -22.429,63.614 -23.281,87.48 -119.472,122.997 -29.662,222.467 18.83,20.84 41.516,92.81 49.765,122.06 l 1.911,10.645 c 40.51,102.33 40.33,85.123 139.321,82.682 23.109,-0.568 46.236,34.151 68.625,47.801 40.852,24.89 3.088,74.288 134.927,101.028 23.622,4.79 -13.904,31.392 68.628,46.612 88.439,16.3 41.83,92.409 64.749,152.239 9.551,24.93 19.904,98.082 -3.308,116.582 -29.12,23.22 -96.493,60.684 -54.983,112.034 21.73,26.89 173.268,103.209 179.007,119.889 12.03,34.961 -70.03,107.871 -21.342,163.711 20.881,23.95 16.738,142.931 65.577,109.141 75.301,-52.11 172.985,-22.725 256.0059,-50.695 154.961,-52.209 85.058,-1.267 120.769,53.744 30.21,46.54 109.5,-27.557 202.261,-10.077 97.279,18.34 165.412,-154.484 235.283,-142.524 38.198,6.54 6.937,172.767 85.99,71.417 5.318,-6.82 9.599,-13.184 12.917,-21.084 92.68,-73.07 64.225,-11.559 111.106,-23.409 45.029,-11.39 24.604,-59.847 105.833,-54.157 49.25,3.45 84.646,-23.129 55.346,-74.879 -31.962,-56.44 -8.972,-101.766 -52.763,-91.726 -63.85,14.64 -193.233,-67.227 -61.185,-119.217 41.359,-16.28 37.745,-31.491 73.845,-28.371 35.34,3.06 63.934,-26.026 37.105,-67.696 -59.52,-92.42 -5.257,-60.807 67.903,-99.477 50.8,-26.85 62.389,-21.123 57.618,34.417 -2.381,27.569 -20.579,98.616 32.401,85.886 31.001,-7.44 126.619,-127.536 143.867,-27.285 9.43,54.82 13.105,55.141 69.816,43.821 59.61,-11.89 89.993,-117.194 131.36,-82.114 26.191,22.21 52.909,23.379 70.541,62.529 30.93,68.67 82.542,-4.252 134.511,-21.343 80.463,-26.439 168.572,-4.99 207.172,-90.64 39.221,-87.05 65.193,20.387 126.142,-85.163 27.84,-48.2 94.512,-113.263 150.482,-123.093 47.67,-8.38 49.668,4.778 107.54,-8.682 81.928,-19.06 101.275,-24.282 187.275,-31.832 20.158,-1.77 38.806,-7.839 58.134,-9.509 62.471,-19.6 52.888,-13.012 102.838,-21.342 69.199,-11.53 136.195,-86.882 186.344,-130.121 17.031,-14.691 32.141,-25.688 44.701,-29.198 63.23,-17.68 38.571,3.721 99.941,3.721 83.45,0 108.249,-80.666 229.6,-101.286 60.928,-10.36 127.27,-33.615 169.498,-79.685 116.551,-127.13 175.588,-42.017 234.508,-66.507 119.398,-49.61 164.983,35.133 251.613,-2.068 49.628,-21.309 96.412,-48.84 147.741,-66.3 97.692,-33.23 79.843,-112.402 181.901,-125.522 30.641,-3.94 15.978,29.112 116.427,-4.858 79.55,-26.9 167.333,-83.131 243.292,-118.081 17.021,-7.83 35.19,-16.281 52.039,-24.391 69.831,-30.27 106.754,-51.368 170.222,-9.508 71.522,47.17 66.297,-34.452 138.287,-2.222 82.331,36.85 112.914,-60.41 184.743,-44.08 32.8,7.46 53.133,68.653 141.594,17.053 60.921,-35.541 96.893,23.273 206.965,-57.826 38.399,-28.29 110.773,-91.124 161.952,-60.513 55.29,33.07 126.166,-32.552 198.024,9.508 42.76,25.03 187.331,-6.526 170.739,36.794 -22.54,58.839 0.354,79.95 9.096,131 12.991,-6.94 18.198,-11.483 24.908,-16.123 46.469,-32.09 90.038,-9.449 160.816,-67.8 29.501,-24.329 55.865,-36.742 91.985,-68.213 118.581,-103.289 272.511,-184.02 420.749,-235.489 40.261,-13.97 88.921,-45.079 132.241,-62.839 73.089,-29.98 117.74,-63.159 198.541,-91.26 120.219,-41.799 212.5,-72.014 328.3,-130.793 91.369,-46.37 184.849,-81.664 272.439,-134.514 12.589,-7.589 24.794,-14.162 37.155,-20.722 -50.86,-91 -50.448,-69.744 -130.278,-123.404 -52.628,-35.38 -88.826,-85.519 -15.346,-127.899 52.099,-30.05 123.354,-131.145 148.723,-184.795 19.992,-42.27 -46.623,-87.777 -3.202,-142.937 35.05,-44.53 -4.405,-39.604 42.995,-75.344 53.779,-40.54 -21.921,-97.782 54.88,-214.612 5.239,-7.96 10.591,-16.073 16.121,-23.823 30.702,-114.6 15.266,-50.288 -7.543,-130.328 -11.721,-41.1 72.337,-87.768 78.237,-156.528 8.681,-101.16 167.791,-185.163 113.792,-236.523 -30.17,-28.71 -64.196,-65.191 -35.658,-111.621 17.952,-29.2 99.809,-24.085 140.147,-42.685 64.561,-29.77 69.014,-25.532 121.235,-74.982 17.01,-16.11 63.6,-14.389 95.911,-81.959 21.67,-45.32 4.236,-55.74 49.504,-120.199 30.26,-43.08 45.603,-44.84 77.721,-77.05 l 26.202,-23.874 c -14.52,-43.241 54.224,-166.646 62.373,-206.706 9.451,-46.49 54.832,-82.791 9.922,-125.781 -39.302,-37.62 -25.633,-87.582 11.006,-120.302 54.002,-48.24 -24.434,-44.498 3.877,-93.018 28.141,-48.23 30.215,-2.526 42.994,-79.427 -1.241,-36.76 -17.666,-97.082 -42.426,-125.212 -32.321,-36.72 -54.962,-98.663 -16.692,-140.043 58.772,-63.56 98.464,-57.219 107.074,-162.729 9.721,-119.17 122.108,-106.092 210.169,-106.092 92.488,0 200.314,27.507 289.904,26.407 79.91,-0.979 136.888,3.001 210.169,-31.419 36.198,-16.99 96.769,-122.84 101.439,-155.96 7.112,-50.4 55.409,-164.623 71.779,-226.032 19.902,-74.7 -7.353,-120.665 83.097,-120.665 68.62,0 40.368,-47.645 66.816,-69.505 50.231,-41.52 39.203,-7.443 94.413,-79.323 2.519,-10.32 6.356,-27.605 10.335,-36.845 20.55,-47.78 23.498,-121.322 6.358,-169.912 -22.41,-63.57 10.562,-63.282 4.392,-95.912 -6.051,-31.94 7.504,-70.862 25.374,-98.082 45.418,-69.19 67.855,-44.685 110.225,-118.235 26.861,-46.65 138.425,-140.524 109.553,-188.774 -35.25,-58.92 115.34,-90.516 133.79,-80.616 34.39,18.48 61.536,-12.989 55.967,-31.729 -28.16,-94.71 29.649,-52.486 -4.961,-157.096 -11.901,-35.94 -0.452,-84.728 23.977,-112.138 72.94,-81.85 -2.353,-107.311 16.536,-144.901 11.282,-22.43 9.276,-31.446 12.816,-60.616 0,-171.82 -18.354,-199.617 -144.692,-298.277 -45.662,-35.65 -126.516,-60.241 -134.514,-118.701 -14.822,-108.249 62.362,-112.513 17.052,-152.703 -54.311,-48.191 -110.739,-92.635 -155.649,-150.275 -34.88,-44.7607 -50.459,-45.6827 -90.538,-74.9827 -25.569,-18.69 -69.18,-11.742 -68.781,-21.962 1.529,-38.96 -5.252,-35.058 -21.653,-66.818 -16.5,-31.97 73.665,-19.513 87.386,-17.053 47.419,8.5 72.649,-4.456 110.638,-5.426 25.202,-0.641 82.45,59.106 102.01,78.186 30.629,29.88 149.12,-20.304 199.11,-25.115 24.381,-2.338 20.968,12.194 52.088,9.664 75.991,-6.19 59.22,-66.791 40.929,-116.841 -21.278,-58.209 -6.347,-95.272 -15.296,-129.862 -18.629,-71.95 -30.318,-77.382 -108.728,-97.152 -18.759,-17.1 -31.149,-27.6 -55.448,-36.38 -63.871,-23.08 -21.085,-179.633 -12.764,-234.353 3.8,-25.06 24.395,-97.533 2.326,-115.083 -18.471,-14.69 -163.155,-30.06 -195.546,-32.97 -23.209,-2.09 -44.439,0.08 -59.219,-1.085 -43.55,-3.43 -10.067,-138.686 5.374,-168.7759 46.81,-91.2 -2.537,-82.245 12.504,-124.075 26.001,-72.33 100.121,-77.341 104.18,-150.481 4.421,-79.7 22.685,-67.13 74.414,-110.64 50.821,-42.749 114.654,-37.989 128.984,-49.609 23.673,-19.2 25.408,-20.16 51.679,-35.45 60.46,-35.18 77.874,4.84 104.076,-31.419 35.73,-49.44 92.289,36.071 113.79,51.831 16.711,12.26 104.777,0.389 119.218,-8.682 33.61,-21.089 32.904,-46.322 33.073,-83.922 -1.781,-44.23 -8.922,-61.589 -50.022,-79.789 -106.371,-47.11 -88.866,-80.891 -153.376,-137.511 -39.521,-34.69 -30.38,-60.95 15.142,-56.12 93.718,9.95 68.103,-17.406 93.842,-23.926 52.422,-13.3 79.052,99.604 145.833,87.074 88.81,-16.65 66.149,37.67 143.299,5.22 55.128,-23.2 113.4,-51.368 132.86,-113.378 17.608,-56.09 44.32,-41.781 72.192,-76.791 47.99,-60.28 97.705,-24.093 150.585,5.787 32.879,18.58 99.134,37.907 136.993,37.207 45.111,-0.83 286.927,23.941 314.349,48.421 16.848,15.05 27.204,17.823 32.244,13.953 6.821,-5.25 3.914,-22.783 -5.786,-38.913 -41.571,-69.16 104.592,-116.111 104.592,-192.701 0,-66.89 -12.099,-68.265 -48.111,-108.676 -22.318,-25.049 7.844,-127.492 -94.515,-138.802 -18.039,-1.99 -100.761,-123.278 -111.879,-144.798 -86.54,-167.48 -195.011,-59.643 -200.403,-148.673 -1.569,-25.85 -1.664,-13.918 -4.805,-32.298 -45.429,-11.62 -38.68,52.895 -92.192,-10.335 -41.579,-49.13 -34.051,-54.692 -46.302,-108.572 -14.84,-65.32 9.901,-16.485 -40.1,-104.335 -2.5,-22.28 -107.693,-94.075 -132.032,-108.055 -33.481,-19.23 -19.593,-71.655 -13.333,-102.475 12.38,-60.91 -31.705,-81.685 34.984,-136.735 81.711,-67.4407 -14.161,-89.9861 15.967,-161.386 28.983,-68.69 -80.912,-54.0967 -20.772,-141.0766 50.519,-73.07 -6.332,-71.7047 -2.223,-104.3348 4.019,-31.8899 14.883,-24.97 14.883,-79.2199 0,-37.0002 23.765,-79.635 48.784,-105.2649 26.85,-27.5 34.867,-53.9613 55.086,-76.7912 40.45,-45.6501 23.852,-33.2182 29.919,-87.1781 8.782,-78.0899 78.521,-36.6634 99.219,-43.8733 60.37,-21.0201 112.665,15.7284 130.794,8.2682 78.11,-32.1799 38.822,-29.3948 84.492,10.3353 40.95,35.6198 42.905,23.5321 76.325,-1.757 43.352,-32.8099 59.965,-83.682 70.694,-133.842 -3.498,-39.03 -55.518,-67.6133 -89.607,-62.3734 -93.199,14.3401 -25.725,-129.7084 -7.546,-168.5686 15.669,-33.5298 30.004,-97.7484 29.353,-134.3586 -3.138,-176.0098 38.605,-80.3367 128.984,-150.6368 54.862,-42.6701 40.005,9.1369 73.483,10.0769 43.442,1.2198 69.983,-63.7479 68.731,-103.5079 -2.27,-72.15 73.599,-62.4199 74.57,-105.1099 1.799,-79.0999 35.087,-24.1716 52.348,-24.7013 26.591,-0.8202 100.089,-139.4145 108.469,-164.1244 34.61,-102.08 68.027,-54.4478 81.028,-94.2578 31.261,-95.77 96.668,-39.8873 121.388,-108.7271 15.521,-43.2102 -1.709,-38.6797 26.872,-104.1797 6.04,-6.5598 9.882,-9.9719 14.882,-17.6218 23.371,-35.8299 24.331,-32.0545 47.543,-59.9445 21.17,-25.4402 25.81,-127.9771 15.452,-159.8869 -11.25,-34.6501 -16.838,-56.5558 -22.738,-92.9659 -16.561,-102.1098 -98.235,-85.2469 -151.773,-124.437 -57.081,-41.7801 -27.416,-20.9663 -86.765,-42.7363 -58.24,-21.3598 -92.21,-6.4301 -102.269,-70.2799 -15.741,-99.8302 -82.886,-50.9855 -129.707,-98.8055 -54.002,-55.15 -96.221,-9.7851 -126.09,-61.495 -22.831,-39.5102 -34.041,-51.7847 -49.043,-96.0146 -11.478,-33.8299 -97.43,-14.7373 -128,-11.3173 -57.55,6.44 -105.982,-9.1424 -146.4,-4.0823 -171.45,21.4297 -83.446,-92.0612 -177.715,-77.7213 -52.901,8.0401 -110.056,-27.1108 -138.237,31.1092 -10.819,22.3599 -40.1,41.1496 -59.531,24.6496 -47.199,-40.0701 -86.749,-61.5066 -109.397,-123.1966 -14.682,-39.9801 -46.276,-36.1855 -93.845,-45.4753 -33.52,-14.4499 -16.537,-52.4938 -52.917,-72.8638 -86.81,-48.5902 -87.381,105.8264 -137.253,60.6165 -53.329,-48.3401 -2.315,-83.5064 -84.026,-104.6964 -26.101,-6.7701 -58.931,26.8169 -74.88,44.9067 -31.131,35.3002 -83.394,58.4623 -104.023,3.1522 -24.681,-66.1799 -41.429,-26.725 -74.57,-34.0547 -26.289,-5.8201 -76.989,7.8401 -88.728,35.1401 -34.859,81.1 -51.078,72.585 -136.838,79.375 -139.372,11.0296 -138.639,113.2324 -198.437,82.6822 -43.651,-22.2998 -100.052,-26.4583 -148.934,-26.4583 -80.079,0 -79.857,-15.9946 -179.316,-6.6146 l -47.956,-496.0937 -840.052,-767.2917 c -6.559,-2.15 -9.483,-1.991 -16.124,-4.9609 -33.898,-15.1702 -63.19,6.2672 -91.932,11.317 -91.789,16.1499 -120.039,83.1572 -162.729,99.4773 -101.439,38.7799 -152.199,-14.8556 -235.799,6.6145 -140.899,36.2001 -141.838,-103.4989 -213.837,-143.2988 -33.681,-18.6201 -156.342,14.3573 -191.46,29.5074 -72.742,31.3597 -49.697,-38.7083 -124.127,-43.4084 -56.131,-3.5398 -23.474,22.4441 -85.164,-13.1257 -8.591,-5.9502 -17.528,-11.5435 -25.217,-18.6036 -58.542,-53.6999 -76.06,17.7591 -116.168,-84.1809 -34.653,-88.07 -114.713,-20.0157 -179.732,-109.2957 -108.489,-148.99 -175.612,-45.2289 -245.721,-109.3988 -82.521,-75.5301 -207.61,-127.9724 -280.81,-206.6026 -35.47,-38.0899 -57.883,-58.0154 -97.152,-90.7954 -50.06,-41.7899 -105.053,-48.0198 -136.684,-105.4198 -22.019,-39.9701 -76.833,-55.3704 -120.304,-54.5703 -39.06,0.7199 -64.076,-11.3189 -88.365,-11.679 -60.531,-0.9099 -47.281,-13.2638 -127.021,-3.2039 -6.509,-1.0302 -17.092,-2.5376 -23.151,-4.2375 -125.479,-35.0801 -143.643,-72.2609 -284.015,-40.4109 -113.9,25.84 -158.697,56.4446 -259.775,104.6448 -58.592,27.9498 -97.849,-29.837 -142.061,104.2829 -22.238,67.4801 -123.28,95.0587 -149.809,45.8888 -53.24,-98.6801 -72.255,-48.3695 -123.455,-84.7495 -43.101,-30.6199 -103.01,-55.5426 -156.268,-57.7225 -78.322,-3.21 -41.048,-14.9987 -75.086,-46.1987 -14.772,-13.54 -84.979,-17.6239 -107.231,-19.8437 -77.488,-7.7301 -122.531,-37.1846 -182.52,-85.5245 6.379,-20.8301 9.083,-41.2183 3.514,-60.9782 -24.53,-87.0302 5.175,-136.3522 29.456,-213.9921 25.339,-81.0601 77.798,-164.3623 105.987,-241.74238 4.871,-13.38 58.314,-109.0739 58.034,-109.2441 -45.969,-35.7999 -128.458,-60.4673 -187.328,-56.3271 -65.019,4.5699 -95.927,14.5206 -150.016,-31.4193 -33.92,-28.82 -41.897,-22.6105 -94.258,-19.7405 -60.91,12.2801 -103.084,55.372 -141.645,-7.0279 -22.791,-36.88 -69.392,-34.0357 -102.682,-12.8159 -77.679,49.52 -76.824,-22.5181 -129.294,-43.098 -16.616,-6.5214 -30.078,-9.898 -42.426,-10.0253 z"
   id="rect169"
   inkscape:connector-curvature="0" /><symbol
   id="Capitale"
   viewBox="14721.93 10371.93 256.13 256.13"
   transform="translate(0,-2000)">
 <circle
   class="fil0 str0"
   cx="14849.99"
   cy="10499.99"
   r="90.559998"
   id="circle6"
   style="fill:#fefefe;stroke:#2b2a29;stroke-width:75;stroke-miterlimit:22.92560005" />
</symbol>
<symbol
   id="villes"
   viewBox="14797.31 10447.31 105.38 105.38"
   transform="translate(0,-2000)">
 <circle
   class="fil1"
   cx="14850"
   cy="10500"
   r="52.689999"
   id="circle9"
   style="fill:#2b2a29" />
</symbol>
 
</svg>