<?xml version="1.0" encoding="UTF-8" standalone="no"?>
<svg
   xmlns:dc="http://purl.org/dc/elements/1.1/"
   xmlns:cc="http://creativecommons.org/ns#"
   xmlns:rdf="http://www.w3.org/1999/02/22-rdf-syntax-ns#"
   xmlns:svg="http://www.w3.org/2000/svg"
   xmlns="http://www.w3.org/2000/svg"
   xmlns:sodipodi="http://sodipodi.sourceforge.net/DTD/sodipodi-0.dtd"
   xmlns:inkscape="http://www.inkscape.org/namespaces/inkscape"
   width="1154"
   height="866"
   version="1.1"
   id="svg39"
   sodipodi:docname="pc.svg"
   inkscape:version="0.92.4 (5da689c313, 2019-01-14)">
  <metadata
     id="metadata45">
    <rdf:RDF>
      <cc:Work
         rdf:about="">
        <dc:format>image/svg+xml</dc:format>
        <dc:type
           rdf:resource="http://purl.org/dc/dcmitype/StillImage" />
      </cc:Work>
    </rdf:RDF>
  </metadata>
  <defs
     id="defs43" />
  <sodipodi:namedview
     pagecolor="#ffffff"
     bordercolor="#666666"
     borderopacity="1"
     objecttolerance="10"
     gridtolerance="10"
     guidetolerance="10"
     inkscape:pageopacity="0"
     inkscape:pageshadow="2"
     inkscape:window-width="1366"
     inkscape:window-height="705"
     id="namedview41"
     showgrid="false"
     inkscape:zoom="0.19269885"
     inkscape:cx="108.33993"
     inkscape:cy="865.41834"
     inkscape:window-x="-8"
     inkscape:window-y="-8"
     inkscape:window-maximized="1"
     inkscape:current-layer="svg39" />
  <title
     id="title2">Computer Screen and desktop</title>
  <g
     id="g902">
    <path
       id="svg_3"
       d="m 839,303 v -1 l 2,0.20001 q 2,0.29999 5.5,0 L 850,302 v 0.20001 0.29999 l -1,0.5 -1,0.5 0.20001,0.29999 L 848.5,304 v 1 1 l -0.29999,0.20001 L 848,306.5 l 4.79999,19.70001 Q 857.5,346 864.5,372 q 7,26 8.5,31 1.5,5 1.20001,6 Q 874,410 875,410 q 1,0 1.20001,2.5 L 876.5,415 876.79999,415.20001 877,415.5 877.20001,415.79999 877.5,416 l 0.29999,-2.5 Q 878,411 884.5,411.20001 L 891,411.5 891.20001,411.79999 891.5,412 891.79999,412.20001 892,412.5 892.20001,412.79999 892.5,413 l 1.29999,47.20001 Q 895,507.5 894.20001,508.20001 893.5,509 897,547 q 3.5,38 4,50.5 0.5,12.5 1,15.5 0.5,3 0.79999,3.20001 L 903,616.5 l 1.5,0.5 1.5,0.5 V 617.79999 618 H 898.5 891 V 617.79999 617.5 L 890,617.20001 889,617 888.79999,607 Q 888.5,597 885.5,562 q -3,-35 -3.5,-51.5 l -0.5,-16.5 -0.5,-2 -0.5,-2 -0.5,2 -0.5,2 -0.5,-1 -0.5,-1 -0.29999,1.5 Q 878,495 879,495.20001 l 1,0.29999 -0.20001,0.29999 L 879.5,496 879.20001,496.20001 879,496.5 878.79999,496.79999 878.5,497 l -0.5,1.5 -0.5,1.5 -0.5,-1 -0.5,-1 -0.5,-2.5 q -0.5,-2.5 -2,-13.5 -1.5,-11 -2,-8.5 L 871.5,476 871,465.5 Q 870.5,455 869,432 867.5,409 864.79999,408 862,407 861.20001,404.5 860.5,402 853.5,370 l -7,-32 -0.29999,-3.5 L 846,331 h -1 -1 l -0.20001,6 -0.29999,6 -0.5,-2.5 -0.5,-2.5 -0.5,-3.5 q -0.5,-3.5 -1.5,-13.5 -1,-10 -0.5,-11.5 0.5,-1.5 -0.20001,-2 Q 839,307 839,306 q 0,-1 1,-1.20001 1,-0.29999 0,-0.59998 L 839,304 Z"
       inkscape:connector-curvature="0"
       style="fill:#2c2c2c;fill-rule:evenodd;stroke:#2c2c2c;stroke-width:0.5px" />
    <path
       id="svg_4"
       d="M 966.79999,259.5 967,235 h 1 q 1,0 8.79999,195.5 Q 984.5,626 984,642.5 983.5,659 978.20001,661.79999 973,664.5 967.5,664.79999 L 962,665 v -0.20001 Q 962,664.5 964.5,664 967,663.5 957,663.20001 L 947,663 l 0.5,-0.79999 Q 948,661.5 954,661 l 6,-0.5 0.20001,-0.29999 L 960.5,660 960.79999,659.79999 961,659.5 l 2,-0.5 2,-0.5 1,-0.5 1,-0.5 -2.5,-0.5 -2.5,-0.5 -1,-0.5 q -1,-0.5 -1.20001,-0.79999 Q 959.5,655 955.20001,654 951,653 950,636 949,619 947,619.20001 945,619.5 925.5,618.79999 L 906,618 V 617.79999 617.5 l -1.5,-0.5 -1.5,-0.5 -0.20001,-0.29999 Q 902.5,616 902,613 q -0.5,-3 -1,-15.5 -0.5,-12.5 -4,-50.5 -3.5,-38 -2.79999,-38.79999 0.79999,-0.70001 -0.40002,-48 L 892.5,413 892.20001,412.79999 892,412.5 891.79999,412.20001 891.5,412 891.20001,411.79999 891,411.5 884.5,411.20001 Q 878,411 877.79999,413.5 L 877.5,416 877.20001,415.79999 877,415.5 876.79999,415.20001 876.5,415 876.20001,412.5 Q 876,410 875,410 q -1,0 -0.79999,-1 Q 874.5,408 873,403 q -1.5,-5 -8.5,-31 -7,-26 -11.70001,-45.79999 L 848,306.5 848.20001,306.20001 848.5,306 v -1 -1 L 848.20001,303.79999 848,303.5 l 1,-0.5 1,-0.5 V 302.20001 302 h 11.5 q 11.5,0 11.5,1 0,1 16.5,1.79999 16.5,0.70001 17,1 L 907,306 l 13.5,2.20001 Q 934,310.5 946,311.79999 958,313 958.20001,322 958.5,331 959,344.5 l 0.5,13.5 0.29999,0.20001 L 960,358.5 l 2,0.29999 2,0.20001 -0.20001,-13.5 Q 963.5,332 963.20001,324 L 963,316 h 0.20001 0.29999 l 0.5,-4.5 q 0.5,-4.5 0.5,-14.5 0,-10 0.5,-13.5 0.5,-3.5 1,-1.5 0.5,2 0.79999,-22.5 z M 909,414.20001 905,413.5 l 6.5,-0.29999 Q 918,413 919.20001,438.5 920.5,464 920.79999,486 L 921,508 919,507.79999 917,507.5 916.79999,507.20001 916.5,507 916,501 q -0.5,-6 -1.79999,-46 Q 913,415 909,414.20001 Z m 45.20001,111 L 949.5,525 947,523 q -2.5,-2 -3.5,-5 -1,-3 -0.5,-8 0.5,-5 3.20001,-7.79999 Q 949,499.5 954.5,500 q 5.5,0.5 7.70001,3.20001 Q 964.5,506 964.5,512.5 q 0,6.5 -2.70001,9.70001 -2.79999,3.29999 -7.59998,3 z"
       inkscape:connector-curvature="0"
       style="fill:#2f2f30;fill-rule:evenodd;stroke:#2f2f30;stroke-width:0.5px" />
    <path
       id="svg_5"
       d="M 835.20001,302 834,246 l 1.5,0.8 q 1.5,0.7 7.5,0.7 h 6 v -0.3 -0.2 l 11.5,1.8 q 11.5,1.7 10,2.2 -1.5,0.5 23,3.5 24.5,3 27,3.29999 L 923,258 v 0.20001 Q 923,258.5 927,259 l 4,0.5 V 259.79999 260 l -6.5,0.20001 Q 918,260.5 914.5,261 l -3.5,0.5 -1,0.29999 -1,0.20001 0.20001,1 0.29999,1 v 0.5 0.5 l -0.29999,0.20001 L 909,265.5 l 0.79999,0.70001 Q 910.5,267 911.5,271 q 1,4 5.29999,16.5 Q 921,300 923.20001,302 925.5,304 926,305.5 q 0.5,1.5 0.79999,2 L 927,308 926,307.79999 Q 925,307.5 920.5,307 L 916,306.5 911.5,306.20001 907,306 l -0.5,-0.20001 q -0.5,-0.29999 -28.5,-2 L 850,302 l -3.5,0.20001 q -3.5,0.29999 -5.5,0 L 839,302 v 1 1 l 1,0.20001 q 1,0.29999 0,0.59998 Q 839,305 839,306 q 0,1 0.79999,1.5 0.70001,0.5 0.20001,2 -0.5,1.5 0.5,11.5 1,10 1.5,13.5 l 0.5,3.5 0.5,2.5 0.5,2.5 0.29999,-6 L 844,331 h 1 1 l 0.20001,3.5 0.29999,3.5 7,32 q 7,32 7.70001,34.5 Q 862,407 864.79999,408 867.5,409 869,432 q 1.5,23 2,33.5 l 0.5,10.5 0.5,-2.5 q 0.5,-2.5 2,8.5 1.5,11 2,13.5 l 0.5,2.5 0.5,1 0.5,1 0.5,-1.5 0.5,-1.5 0.29999,-0.20001 L 879,496.5 879.20001,496.20001 879.5,496 879.79999,495.79999 880,495.5 879,495.20001 Q 878,495 878.20001,493.5 L 878.5,492 l 0.5,1 0.5,1 0.5,-2 0.5,-2 0.5,2 0.5,2 0.5,16.5 q 0.5,16.5 3.5,51.5 3,35 3.29999,45 L 889,617 l 1,0.20001 1,0.29999 V 617.79999 618 l -9,0.20001 q -9,0.29999 -10.20001,9.59998 L 870.5,637 870.20001,636.79999 870,636.5 869.79999,636.20001 869.5,636 869.20001,635.79999 869,635.5 868.79999,635.20001 868.5,635 868.20001,635.20001 868,635.5 867.79999,635.79999 867.5,636 867,635 866.5,634 866.20001,633.79999 866,633.5 865.79999,633.20001 865.5,633 865.20001,632.79999 865,632.5 864,632 q -1,-0.5 -2.5,-1.5 -1.5,-1 -3.29999,-3.29999 Q 856.5,625 854,581 q -2.5,-44 -4.5,-85 -2,-41 -2.5,-63 -0.5,-22 -1.20001,-23 L 845,409 844.5,408.79999 Q 844,408.5 842.5,408 841,407.5 838.79999,382.79999 836.5,358 835.20001,302 Z"
       inkscape:connector-curvature="0"
       style="fill:#2b2b2b;fill-rule:evenodd;stroke:#2b2b2b;stroke-width:0.5px" />
    <path
       id="svg_6"
       d="m 807.5,239.2 0.5,-0.2 4.20001,202.5 q 4.29999,202.5 4,204 Q 816,647 799.79999,649 783.5,651 779.20001,651.79999 775,652.5 770,653 l -5,0.5 0.20001,0.29999 L 765.5,654 765.79999,654.20001 766,654.5 764.5,654.79999 763,655 v 1.5 1.5 h -2.5 q -2.5,0 -2.5,-1.5 0,-1.5 -3.5,-1.29999 Q 751,655.5 749.5,655 748,654.5 736.5,655.20001 725,656 724.79999,655 724.5,654 721.20001,654.20001 718,654.5 707.5,655.5 q -10.5,1 -11.70001,2.29999 -1.29999,1.20001 -6.59998,3 -5.20001,1.70001 -4,3 1.29999,1.20001 -3,1.70001 L 678,666 l -0.5,0.20001 Q 677,666.5 675,666.5 q -2,0 -30.5,-1.5 -28.5,-1.5 -28,-2 0.5,-0.5 -13,-1.20001 L 590,661 v -1.5 -1.5 l 9.5,-0.20001 L 609,657.5 606.5,657 q -2.5,-0.5 -3.5,-1 l -1,-0.5 3.5,-0.5 q 3.5,-0.5 3.5,-0.79999 V 654 l 14.5,0.5 q 14.5,0.5 16,-1.29999 Q 641,651.5 650,651.5 q 9,0 10,-0.29999 L 661,651 660.79999,618 q -0.29999,-33 -7,-33.5 L 647,584 V 583.79999 583.5 h 9.5 q 9.5,0 42.5,-0.5 33,-0.5 37,-2 4,-1.5 5.79999,-4.79999 Q 743.5,573 744,525.5 744.5,478 742.79999,379.5 L 741,281 l 0.5,-5.79999 Q 742,269.5 774.5,254.5 q 32.5,-15 33,-15.3 z"
       inkscape:connector-curvature="0"
       style="fill:#666767;fill-rule:evenodd;stroke:#666767;stroke-width:0.5px" />
    <path
       id="svg_7"
       d="m 196.2,186.8 -0.2,-24.3 5.5,-0.3 5.5,-0.2 175,21.2 q 175,21.3 175.5,21.6 l 0.5,0.2 1,1.2 q 1,1.3 -0.20001,2 -1.29999,0.8 -0.29999,8.3 1,7.5 0.5,10 -0.5,2.5 -1.5,3.5 -1,1 -1.5,16 -0.5,15 -4.5,41.5 -4,26.5 -4.5,34 -0.5,7.5 -1.5,10 -1,2.5 -3.5,22 -2.5,19.5 -4.5,53 -2,33.5 -3.5,85 -1.5,51.5 -2.79999,55.29999 -1.20001,3.70001 -2,4.40002 -0.70001,0.79999 -0.40002,1 Q 529,552.5 509.5,552.79999 L 490,553 451,552.79999 q -39,-0.29999 -99.5,-1 L 291,551 275.5,550.79999 Q 260,550.5 238,549.5 q -22,-1 -27.2,-2.29999 -5.3,-1.20001 -6,-2 Q 204,544.5 204.2,543.79999 204.5,543 205,491.5 205.5,440 203.5,375 q -2,-65 -2.5,-87.5 -0.5,-22.5 -2.5,-49.5 -2,-27 -2.3,-51.2 z"
       inkscape:connector-curvature="0"
       style="fill:#6c9dbc;fill-rule:evenodd;stroke:#6c9dbc;stroke-width:0.5px" />
    <path
       id="svg_8"
       d="m 828,220.5 -4,-3.5 69.5,8.8 q 69.5,8.7 71.5,9 l 2,0.2 v 0.2 q 0,0.3 0.5,0.6 l 0.5,0.2 -0.79999,24 Q 966.5,284 966,282 q -0.5,-2 -1,1.5 -0.5,3.5 -0.5,13.5 0,10 -0.5,14.5 l -0.5,4.5 H 963.20001 963 v -2.5 -2.5 l -5,-0.20001 Q 953,310.5 940,309.20001 L 927,308 926.79999,307.5 Q 926.5,307 926,305.5 925.5,304 923.20001,302 921,300 916.79999,287.5 912.5,275 911.5,271 q -1,-4 -1.70001,-4.79999 L 909,265.5 909.20001,265.20001 909.5,265 v -0.5 -0.5 l -0.29999,-1 -0.20001,-1 1,-0.20001 1,-0.29999 3.5,-0.5 q 3.5,-0.5 10,-0.79999 L 931,260 l 12.20001,1.5 Q 955.5,263 956,280 l 0.5,17 0.29999,1 0.20001,1 h 2.5 2.5 l -0.20001,-10.5 Q 961.5,278 960.79999,269.20001 960,260.5 941.5,259 L 923,257.5 V 257.79999 258 l -2.5,-0.20001 Q 918,257.5 893.5,254.5 q -24.5,-3 -23,-3.5 1.5,-0.5 -7.5,-0.8 -9,-0.2 -9,-1.2 0,-1 -2.5,-1.5 L 849,247 846.5,246.8 Q 844,246.5 842,245.2 840,244 839.79999,243 839.5,242 839.20001,243.5 839,245 838,245 q -1,0 -0.79999,-1 0.29999,-1 -0.40002,-1.8 -0.79999,-0.7 0,-1.4 Q 837.5,240 837,239 836.5,238 834.20001,231 832,224 828,220.5 Z"
       inkscape:connector-curvature="0"
       style="fill:#333333;fill-rule:evenodd;stroke:#333333;stroke-width:0.5px" />
    <path
       id="svg_9"
       d="m 634.5,196.8 1.5,0.2 2,1.8 q 2,1.7 11,3.7 9,2 8.5,2.5 -0.5,0.5 5,3 5.5,2.5 8,3 l 2.5,0.5 -0.20001,0.3 -0.29999,0.2 -0.29999,0.2 -0.20001,0.3 -1,0.5 -1,0.5 1.5,0.5 1.5,0.5 1,0.5 1,0.5 -11,0.3 -11,0.2 -4,-0.2 q -4,-0.3 -47.5,-5.6 L 558,205 557.5,204.8 Q 557,204.5 382,183.2 L 207,162 v -0.2 -0.3 l -3.5,-0.5 -3.5,-0.5 -5,-0.5 q -5,-0.5 -30,-3.2 -25,-2.8 -25.8,-0.8 -0.7,2 -1.2,0 l -0.5,-2 -1.5,16 q -1.5,16 -6,135 -4.5,119 -4.5,124 0,5 -0.5,4 -0.5,-1 -2.5,56 -2,57 -0.7,58.20001 Q 123,548.5 125,549 q 2,0.5 21.5,0.79999 L 166,550 v 1.20001 q 0,1.29999 15.8,4 Q 197.5,558 199.2,565.5 201,573 202,573 h 1 l -0.2,1 -0.3,1 -0.3,0.20001 -0.2,0.29999 1.5,0.29999 L 205,576 v 1 1 h -21 -21 l -20.5,-0.79999 Q 122,576.5 113.5,574.5 105,572.5 102.2,569.79999 99.5,567 98,560.5 96.5,554 97.5,516.5 98.5,479 106,320 q 7.5,-159 9.8,-168.8 2.2,-9.7 5.2,-12.7 3,-3 21,-3 18,0 254.5,30.5 236.5,30.5 238,30.8 z"
       inkscape:connector-curvature="0"
       style="fill:#141515;fill-rule:evenodd;stroke:#141515;stroke-width:0.5px" />
    <path
       id="svg_10"
       d="m 831.5,377 v -2 l 0.5,1.5 0.5,1.5 1.5,12 q 1.5,12 1.5,13.5 v 1.5 3.5 3.5 l 0.29999,-0.20001 L 836,411.5 836.20001,411.20001 836.5,411 l 0.5,-6 0.5,-6 0.29999,4.5 0.20001,4.5 0.79999,0.5 Q 839.5,409 840,424 q 0.5,15 1,25.5 l 0.5,10.5 0.5,-22 q 0.5,-22 1.79999,-25.5 L 845,409 l 0.79999,1 Q 846.5,411 847,433 q 0.5,22 2.5,63 2,41 4.5,85 2.5,44 4.20001,46.20001 Q 860,629.5 861.5,630.5 q 1.5,1 2.5,1.5 l 1,0.5 0.20001,0.29999 L 865.5,633 865.79999,633.20001 866,633.5 866.20001,633.79999 866.5,634 l 0.5,1 0.5,1 0.29999,-0.20001 L 868,635.5 868.20001,635.20001 868.5,635 868.79999,635.20001 869,635.5 869.20001,635.79999 869.5,636 869.79999,636.20001 870,636.5 870.20001,636.79999 870.5,637 l 1.29999,-9.20001 Q 873,618.5 882,618.20001 L 891,618 h 7.5 7.5 l 19.5,0.79999 Q 945,619.5 947,619.20001 949,619 950,636 q 1,17 5.20001,18 4.29999,1 4.59998,1.20001 Q 960,655.5 961,656 l 1,0.5 2.5,0.5 2.5,0.5 -1,0.5 -1,0.5 -2,0.5 -2,0.5 -0.20001,0.29999 L 960.5,660 960.20001,660.20001 960,660.5 954,661 q -6,0.5 -6.5,1.20001 L 947,663 943,662.79999 Q 939,662.5 938.5,662 q -0.5,-0.5 -14,-1.5 -13.5,-1 -53.5,-0.29999 L 831,661 830.5,660.79999 830,660.5 830.20001,660.20001 830.5,660 830.79999,659.79999 831,659.5 l 3,-0.29999 3,-0.20001 0.20001,-1 0.29999,-1 0.29999,-0.20001 L 838,656.5 l -1,-0.5 -1,-0.5 -1,-0.29999 Q 834,655 834,654 q 0,-1 -2.5,-1 H 829 v -1 q 0,-1 2.5,-1.79999 Q 834,649.5 832.5,649 831,648.5 831.20001,642.20001 831.5,636 830.20001,603 L 829,570 h 0.20001 0.29999 l 0.5,-15 q 0.5,-15 1,-20.5 0.5,-5.5 0.5,-80.5 V 379 Z M 842.20001,462.79999 842,462.5 l 0.20001,-0.29999 Q 842.5,462 842.5,462.5 v 0.5 z"
       inkscape:connector-curvature="0"
       style="fill:#262626;fill-rule:evenodd;stroke:#262626;stroke-width:0.5px" />
    <path
       id="svg_11"
       d="M 166,551.20001 V 550 l 35.5,0.79999 Q 237,551.5 264,551.5 h 27 V 551.20001 551 l 60.5,0.79999 q 60.5,0.70001 99.5,1 L 490,553 v 0.20001 0.29999 l 9,0.5 9,0.5 -3.5,0.29999 L 501,555 l -8,0.20001 -8,0.29999 0.20001,0.29999 L 485.5,556 485.79999,556.20001 486,556.5 486.20001,556.79999 486.5,557 486.79999,557.20001 487,557.5 487.20001,557.79999 487.5,558 487.79999,558.20001 488,558.5 l 2.5,0.5 2.5,0.5 7,1 q 7,1 6,1.5 -1,0.5 2,1.20001 3,0.79999 3.79999,6.79999 0.70001,6 0,6.79999 Q 511,577.5 510,578 l -1,0.5 6.5,0.5 6.5,0.5 2.5,0.5 2.5,0.5 -5,0.5 q -5,0.5 -10,0.79999 L 507,582 h -10 q -10,0 -11.79999,6 Q 483.5,594 477,608 q -6.5,14 -7,15 l -0.5,1 -0.5,1.5 -0.5,1.5 -0.5,1.5 -0.5,1.5 -0.5,1 -0.5,1 H 466.20001 466 l -0.20001,-1 -0.29999,-1 -0.5,-5 q -0.5,-5 -1,-9 l -0.5,-4 -0.5,2.5 q -0.5,2.5 -0.79999,2.70001 Q 462,617.5 421.5,618.5 381,619.5 373,621.20001 L 365,623 v -8 -8 l 0.20001,-1 Q 365.5,605 369,596 l 3.5,-9 0.29999,-0.20001 L 373,586.5 373.20001,586.20001 373.5,586 v -2 -2 L 373.20001,581.79999 373,581.5 351.5,581 q -21.5,-0.5 -105,-1.5 l -83.5,-1 V 578.20001 578 h 21 21 v -1 -1 l -1.5,-0.20001 -1.5,-0.29999 0.2,-0.29999 0.3,-0.20001 0.3,-1 0.2,-1 h -1 q -1,0 -2.8,-7.5 -1.7,-7.5 -17.4,-10.29999 -15.8,-2.70001 -15.8,-4 z"
       inkscape:connector-curvature="0"
       style="fill:#0f0f0f;fill-rule:evenodd;stroke:#0f0f0f;stroke-width:0.5px" />
    <path
       id="svg_12"
       d="m 559,206.2 -1,-1.2 43.5,5.2 q 43.5,5.3 47.5,5.6 l 4,0.2 v 0.2 0.3 l 34,4.5 q 34,4.5 35.20001,15.2 Q 723.5,247 725,401.5 726.5,556 725.20001,557.79999 724,559.5 622.5,558 521,556.5 511,556 l -10,-0.5 V 555.20001 555 l 3.5,-0.20001 3.5,-0.29999 -9,-0.5 -9,-0.5 V 553.20001 553 l 19.5,-0.20001 Q 529,552.5 528.79999,552.20001 528.5,552 529.20001,551.20001 530,550.5 531.20001,546.79999 532.5,543 534,491.5 q 1.5,-51.5 3.5,-85 2,-33.5 4.5,-53 2.5,-19.5 3.5,-22 1,-2.5 1.5,-10 0.5,-7.5 4.5,-34 4,-26.5 4.5,-41.5 0.5,-15 1.5,-16 1,-1 1.5,-3.5 0.5,-2.5 -0.5,-10 -1,-7.5 0.29999,-8.3 Q 560,207.5 559,206.2 Z"
       inkscape:connector-curvature="0"
       style="fill:#6a8fac;fill-rule:evenodd;stroke:#6a8fac;stroke-width:0.5px" />
    <path
       id="svg_13"
       d="m 638,198.8 -2,-1.8 42,5.8 q 42,5.7 48.79999,8.4 6.70001,2.8 9.20001,7.3 2.5,4.5 3.5,14.5 1,10 1.29999,15.5 L 741,254 l -0.20001,4 Q 740.5,262 740.5,271.5 V 281 H 740.79999 741 l 1.79999,98.5 Q 744.5,478 744,525.5 743.5,573 741.79999,576.20001 740,579.5 736,581 q -4,1.5 -37,2 -33,0.5 -42.5,0.5 H 647 V 583.79999 584 l -4,-0.20001 Q 639,583.5 573,583 l -66,-0.5 V 582.20001 582 l 5,-0.20001 Q 517,581.5 522,581 l 5,-0.5 -2.5,-0.5 -2.5,-0.5 -6.5,-0.5 -6.5,-0.5 1,-0.5 q 1,-0.5 1.79999,-1.20001 Q 512.5,576 511.79999,570 511,564 508,563.20001 505,562.5 506,562 q 1,-0.5 -6,-1.5 l -7,-1 -2.5,-0.5 -2.5,-0.5 -0.20001,-0.29999 L 487.5,558 487.20001,557.79999 487,557.5 486.79999,557.20001 486.5,557 486.20001,556.79999 486,556.5 485.79999,556.20001 485.5,556 485.20001,555.79999 485,555.5 493,555.20001 501,555 v 0.20001 0.29999 l 10,0.5 q 10,0.5 111.5,2 101.5,1.5 102.70001,-0.20001 Q 726.5,556 725,401.5 723.5,247 722.20001,236.2 721,225.5 687,221 l -34,-4.5 v -0.3 -0.2 l 11,-0.2 11,-0.3 -1,-0.5 -1,-0.5 -1.5,-0.5 -1.5,-0.5 1,-0.5 1,-0.5 0.20001,-0.3 L 672.5,212 672.79999,211.8 673,211.5 670.5,211 q -2.5,-0.5 -8,-3 -5.5,-2.5 -5,-3 0.5,-0.5 -8.5,-2.5 -9,-2 -11,-3.7 z"
       inkscape:connector-curvature="0"
       style="fill:#272828;fill-rule:evenodd;stroke:#272828;stroke-width:0.5px" />
    <path
       id="svg_14"
       d="m 824,216.8 v 0.2 l -1.5,0.5 q -1.5,0.5 1.70001,153 Q 827.5,523 828,545.5 l 0.5,22.5 0.29999,1 0.20001,1 1.20001,33 q 1.29999,33 1,39.20001 Q 831,648.5 832.5,649 q 1.5,0.5 -1,1.20001 Q 829,651 829,652 v 1 h 2.5 q 2.5,0 2.5,1 0,1 1,1.20001 l 1,0.29999 1,0.5 1,0.5 -0.20001,0.29999 L 837.5,657 l -0.29999,1 -0.20001,1 -3,0.20001 -3,0.29999 -0.20001,0.29999 L 830.5,660 830.20001,660.20001 830,660.5 830.5,660.79999 831,661 v 0.20001 q 0,0.29999 -3,1.29999 -3,1 -4.5,2.70001 Q 822,667 814,668 q -8,1 -9.20001,-1.5 L 803.5,664 803.20001,663.79999 803,663.5 801,663.20001 799,663 792.5,662.79999 Q 786,662.5 784,662.5 q -2,0 -3,1.70001 -1,1.79999 -4,2 Q 774,666.5 771.5,664.5 l -2.5,-2 -0.20001,-0.29999 L 768.5,662 768.20001,661 768,660 767,659.79999 766,659.5 764.5,659 763,658.5 V 658.20001 658 656.5 655 l 1.5,-0.20001 L 766,654.5 765.79999,654.20001 765.5,654 765.20001,653.79999 765,653.5 770,653 q 5,-0.5 9.20001,-1.20001 Q 783.5,651 799.79999,649 816,647 816.20001,645.5 q 0.29999,-1.5 -4,-204 L 808,239 h 0.20001 q 0.29999,0 0.59998,-8.5 L 809,222 l 1.5,-0.8 q 1.5,-0.7 2.5,-1.2 l 1,-0.5 5,-1.5 q 5,-1.5 5,-1.2 z m -14.5,448.99999 q 0.5,-1.29999 1,0 Q 811,667 810,667 q -1,0 -0.5,-1.20001 z"
       inkscape:connector-curvature="0"
       style="fill:#595959;fill-rule:evenodd;stroke:#595959;stroke-width:0.5px" />
    <path
       id="svg_15"
       d="m 136,170 1.5,-16 0.5,2 q 0.5,2 1.2,0 0.8,-2 25.8,0.8 25,2.7 30,3.2 l 5,0.5 3.5,0.5 3.5,0.5 v 0.3 0.2 l -5.5,0.2 -5.5,0.3 0.2,24.3 q 0.3,24.2 2.3,51.2 2,27 2.5,49.5 0.5,22.5 2.5,87.5 2,65 1.5,116.5 -0.5,51.5 -0.8,52.29999 -0.2,0.70001 0.6,1.40002 0.7,0.79999 6,2 Q 216,548.5 238,549.5 q 22,1 37.5,1.29999 L 291,551 v 0.20001 0.29999 h -27 q -27,0 -62.5,-0.70001 L 166,550 146.5,549.79999 Q 127,549.5 125,549 123,548.5 121.8,547.20001 120.5,546 122.5,489 q 2,-57 2.5,-56 0.5,1 0.5,-4 0,-5 4.5,-124 4.5,-119 6,-135 z"
       inkscape:connector-curvature="0"
       style="fill:#3d5a8c;fill-rule:evenodd;stroke:#3d5a8c;stroke-width:0.5px" />
    <path
       id="svg_16"
       d="M 467,684.20001 499,684 l 42,1.20001 Q 583,686.5 582.5,687 q -0.5,0.5 1,0.79999 Q 585,688 585,689 q 0,1 6.20001,3 6.29999,2 6,2.5 L 597,695 l -1,0.20001 Q 595,695.5 374,701 q -221,5.5 -262,5.5 -41,0 -45,-3.5 L 63,699.5 62.799999,699.20001 62.5,699 62.200001,698.79999 62,698.5 61.799999,698.20001 61.5,698 61.200001,697.79999 61,697.5 60.799999,697.20001 60.5,697 60.200001,696.79999 60,696.5 59.799999,696.20001 59.5,696 59.200001,695.79999 59,695.5 58.799999,695.20001 58.5,695 58.200001,693.5 58,692 59,691.79999 60,691.5 60.200001,691.20001 60.5,691 60.799999,690.79999 61,690.5 h 1.5 1.5 l 0.199997,0.29999 L 64.5,691 64.800003,691.20001 65,691.5 l 3.5,1.29999 Q 72,694 72.199997,696.5 L 72.5,699 l 0.5,-1 0.5,-1 0.5,-4 q 0.5,-4 0.800003,-4.5 L 75,688 75.5,687.79999 76,687.5 h 1 1 92.5 q 92.5,0 178.5,-1.5 86,-1.5 118,-1.79999 z"
       inkscape:connector-curvature="0"
       style="fill:#181818;fill-rule:evenodd;stroke:#181818;stroke-width:0.5px" />
    <path
       id="svg_17"
       d="M 360.20001,619 365,607 v 8 8 l 8,-1.79999 Q 381,619.5 421.5,618.5 462,617.5 462.20001,617.20001 462.5,617 463,614.5 l 0.5,-2.5 0.5,4 q 0.5,4 1,9 l 0.5,5 0.29999,1 0.20001,1 v 1 q 0,1 1.20001,1.5 1.29999,0.5 1.59998,6 0.20001,5.5 -2,6 Q 464.5,647 464.5,649 v 2 l 0.29999,0.20001 L 465,651.5 465.20001,651.79999 465.5,652 465.79999,652.20001 466,652.5 l 2.5,0.5 q 2.5,0.5 4.5,0.79999 L 475,654 v 0.20001 0.29999 l 0.5,0.29999 L 476,655 v 0.20001 0.29999 l -7.5,0.5 q -7.5,0.5 -5.5,1.5 2,1 -10.5,1.29999 Q 440,659 440,660.5 q 0,1.5 -6,1.29999 -6,-0.29999 -6.20001,0.40002 Q 427.5,663 413.20001,662.5 399,662 399,661 q 0,-1 -12,-1.20001 -12,-0.29999 -12.20001,-1 Q 374.5,658 369.20001,656.5 L 364,655 H 363.79999 363.5 l -0.5,-1.5 -0.5,-1.5 -0.5,-1 q -0.5,-1 -1.79999,-0.79999 -1.20001,0.29999 -2,-1 Q 357.5,648 356.5,639.5 q -1,-8.5 3.70001,-20.5 z"
       inkscape:connector-curvature="0"
       style="fill:#121313;fill-rule:evenodd;stroke:#121313;stroke-width:0.5px" />
    <path
       id="svg_18"
       d="M 962,667.20001 V 667 h 1.5 q 1.5,0 1.5,1.5 0,1.5 2.79999,3 2.70001,1.5 3.20001,2 0.5,0.5 0.79999,0.70001 L 972,674.5 972.20001,674.79999 972.5,675 v 3 3 l -0.29999,3 -0.20001,3 -13,0.20001 q -13,0.29999 -187.5,4 L 597,695 l 0.20001,-0.5 q 0.29999,-0.5 -6,-2.5 Q 585,690 585,689 q 0,-1 -1.5,-1.20001 Q 582,687.5 582.5,687 583,686.5 541,685.20001 L 499,684 V 683.79999 683.5 l 81.5,-2.5 q 81.5,-2.5 96,-3 l 14.5,-0.5 3,-0.5 3,-0.5 1.5,-0.5 1.5,-0.5 V 675.20001 675 l 45.5,-0.79999 q 45.5,-0.70001 49.5,-1 L 799,673 873,671.20001 Q 947,669.5 954.5,668.5 q 7.5,-1 7.5,-1.29999 z"
       inkscape:connector-curvature="0"
       style="fill:#282828;fill-rule:evenodd;stroke:#282828;stroke-width:0.5px" />
    <path
       id="svg_19"
       d="m 909,414.20001 -4,-0.70001 6.5,-0.29999 Q 918,413 919.20001,438.5 920.5,464 920.79999,486 L 921,508 919,507.79999 917,507.5 916.79999,507.20001 916.5,507 916,501 q -0.5,-6 -1.79999,-46 Q 913,415 909,414.20001 Z"
       inkscape:connector-curvature="0"
       style="fill:#161616;fill-rule:evenodd;stroke:#161616;stroke-width:0.5px" />
    <path
       id="svg_20"
       d="m 808.5,222.2 0.5,-0.2 -0.20001,8.5 Q 808.5,239 808.20001,239 H 808 l -0.5,0.2 q -0.5,0.3 -33,15.3 -32.5,15 -33,20.70001 L 741,281 H 740.79999 740.5 v -9.5 q 0,-9.5 0.29999,-13.5 L 741,254 l 1,-0.2 1,-0.3 1,-0.5 1,-0.5 31.5,-15 q 31.5,-15 32,-15.3 z"
       inkscape:connector-curvature="0"
       style="fill:#626262;fill-rule:evenodd;stroke:#626262;stroke-width:0.5px" />
    <path
       id="svg_21"
       d="M 822.20001,271.5 822,217 h 1 1 l 4,3.5 q 4,3.5 6.20001,10.5 2.29999,7 2.79999,8 0.5,1 -0.20001,1.8 -0.79999,0.7 0,1.4 Q 837.5,243 837.20001,244 837,245 838,245 q 1,0 1.20001,-1.5 Q 839.5,242 839.79999,243 840,244 842,245.2 q 2,1.3 4.5,1.6 l 2.5,0.2 v 0.2 0.3 h -6 q -6,0 -7.5,-0.7 l -1.5,-0.8 1.20001,56 Q 836.5,358 838.79999,382.79999 841,407.5 842.5,408 q 1.5,0.5 2,0.79999 L 845,409 l -1.20001,3.5 Q 842.5,416 842.5,438 v 22 1.5 1.5 L 842.20001,462.79999 842,462.5 841.79999,462.20001 841.5,462 841,450.5 Q 840.5,439 840,424 839.5,409 838.79999,408.5 L 838,408 837.79999,403.5 837.5,399 l -0.5,6 -0.5,6 -0.29999,0.20001 L 836,411.5 835.79999,411.79999 835.5,412 v -3.5 -3.5 -1.5 q 0,-1.5 -1.5,-13.5 l -1.5,-12 -0.5,-1.5 -0.5,-1.5 v 2 2 75 q 0,75 -0.5,80.5 -0.5,5.5 -1,20.5 l -0.5,15 H 829.20001 829 L 828.79999,569 828.5,568 828,545.5 q -0.5,-22.5 -3,-121 -2.5,-98.5 -2.79999,-153 z"
       inkscape:connector-curvature="0"
       style="fill:#1b1b1b;fill-rule:evenodd;stroke:#1b1b1b;stroke-width:0.5px" />
    <path
       id="svg_22"
       d="m 943,662.79999 4,0.20001 10,0.20001 Q 967,663.5 964.5,664 962,664.5 962,664.79999 V 665 l -4.5,0.20001 -4.5,0.29999 3,0.5 3,0.5 1.5,0.29999 L 962,667 v 0.20001 q 0,0.29999 -7.5,1.29999 -7.5,1 -81.5,2.70001 L 799,673 V 672.79999 672.5 l 1,-0.5 1,-0.5 0.20001,-0.29999 L 801.5,671 801.79999,670.79999 802,670.5 802.20001,670.20001 802.5,670 v -0.5 -0.5 l -0.5,-2 -0.5,-2 -0.29999,-0.20001 L 801,664.5 800,664 799,663.5 V 663.20001 663 l 2,0.20001 2,0.29999 0.20001,0.29999 L 803.5,664 l 1.29999,2.5 q 1.20001,2.5 3,2 Q 809.5,668 810,666 q 0.5,-2 1.20001,-0.79999 Q 812,666.5 817,666.79999 822,667 823.5,665.20001 825,663.5 828,662.5 q 3,-1 3,-1.29999 V 661 l 40,-0.79999 Q 911,659.5 924.5,660.5 q 13.5,1 14,1.5 0.5,0.5 4.5,0.79999 z"
       inkscape:connector-curvature="0"
       style="fill:#2f3030;fill-rule:evenodd;stroke:#2f3030;stroke-width:0.5px" />
    <path
       id="svg_23"
       d="m 1148,673 0.5,3 v 1 1 l -0.5,1 -0.5,1 -0.3,1.5 -0.2,1.5 -3.5,0.20001 Q 1140,683.5 1105,683.5 q -35,0 -75,-1.70001 L 990,680 989.79999,678 989.5,676 989.20001,675.79999 989,675.5 988.79999,675.20001 988.5,675 988.20001,672.5 988,670 h 1.5 q 1.5,0 2.5,-3.79999 1,-3.70001 6,-7.20001 5,-3.5 21,-8.5 16,-5 24,-6 8,-1 32,0 24,1 38.5,4 14.5,3 21.3,7.70001 6.7,4.79999 9.7,9.29999 3,4.5 3.5,7.5 z"
       inkscape:connector-curvature="0"
       style="fill:#2a2b2b;fill-rule:evenodd;stroke:#2a2b2b;stroke-width:0.5px" />
    <path
       id="svg_24"
       d="m 131.5,663.5 -2.5,-1 11.8,0.29999 q 11.7,0.20001 11.4,0.40002 -0.2,0.29999 3.3,0.59998 L 159,664 l -0.2,0.5 q -0.3,0.5 -0.6,0.70001 L 158,665.5 l -1,0.5 -1,0.5 -0.2,0.29999 -0.3,0.20001 -0.3,0.20001 -0.2,0.29999 0.2,0.29999 0.3,0.20001 0.5,2 0.5,2 0.5,1 0.5,1 0.3,0.20001 0.2,0.29999 0.8,0.70001 Q 159.5,676 158.5,677 q -1,1 -1.3,2.5 l -0.2,1.5 1,0.20001 1,0.29999 h 34 q 34,0 46.5,-0.5 l 12.5,-0.5 2,-0.29999 2,-0.20001 123.5,-1.79999 q 123.5,-1.70001 127,-2 L 510,676 570,674.79999 Q 630,673.5 642,673 q 12,-0.5 21,-0.79999 L 672,672 v 0.20001 0.29999 l -1,0.5 -1,0.5 -0.20001,0.29999 L 669.5,674 669.20001,674.20001 669,674.5 684.5,674.79999 700,675 v 0.20001 0.29999 l -1.5,0.5 -1.5,0.5 -3,0.5 -3,0.5 -14.5,0.5 q -14.5,0.5 -96,3 L 499,683.5 V 683.79999 684 l -32,0.20001 Q 435,684.5 349,686 q -86,1.5 -178.5,1.5 H 78 77 76 L 75.5,687.79999 75,688 75.199997,687 75.5,686 75.800003,685.79999 76,685.5 76.199997,685.20001 76.5,685 76.800003,684.79999 77,684.5 83.5,684.20001 Q 90,684 89.199997,682 88.5,680 90,675.5 91.5,671 92.800003,669.79999 94,668.5 115.5,667 l 21.5,-1.5 -1.5,-0.5 q -1.5,-0.5 -4,-1.5 z"
       inkscape:connector-curvature="0"
       style="fill:#494f54;fill-rule:evenodd;stroke:#494f54;stroke-width:0.5px" />
    <path
       id="svg_25"
       d="M 923,257.79999 V 257.5 l 18.5,1.5 q 18.5,1.5 19.29999,10.20001 0.70001,8.79999 1,19.29999 L 962,299 H 959.5 957 L 956.79999,298 956.5,297 956,280 q -0.5,-17 -12.79999,-18.5 L 931,260 V 259.79999 259.5 l -4,-0.5 q -4,-0.5 -4,-0.79999 V 258 Z"
       inkscape:connector-curvature="0"
       style="fill:#181818;fill-rule:evenodd;stroke:#181818;stroke-width:0.5px" />
    <path
       id="svg_26"
       d="m 475,655 v -1 l 4,0.20001 q 4,0.29999 6.5,0.59998 L 488,655 v 1 1 l -1,0.20001 -1,0.29999 1,0.5 1,0.5 0.20001,0.29999 L 488.5,659 488.79999,659.20001 489,659.5 l -2.5,0.5 -2.5,0.5 1,0.5 1,0.5 0.20001,0.29999 L 486.5,662 486.79999,662.20001 487,662.5 l 7,1 q 7,1 10.79999,2.70001 Q 508.5,668 509,670.5 q 0.5,2.5 0.79999,4 L 510,676 l -3.5,0.20001 q -3.5,0.29999 -127,2 L 256,680 l -0.2,-0.5 q -0.3,-0.5 -1.6,-4.29999 L 253,671.5 252.8,671.20001 252.5,671 252.2,670 Q 252,669 251,668.79999 L 250,668.5 249.8,668.20001 249.5,668 249.2,667.79999 249,667.5 l 4,-0.5 4,-0.5 -1,-0.5 -1,-0.5 1,-0.5 1,-0.5 0.20001,-0.29999 L 257.5,664 257.79999,663.79999 258,663.5 253.5,663 249,662.5 249.2,662.20001 249.5,662 249.8,661.79999 250,661.5 250.2,661.20001 250.5,661 h 0.3 0.2 l 1.5,-0.20001 1.5,-0.29999 9,-0.5 q 9,-0.5 8,-1 -1,-0.5 10.5,-0.79999 11.5,-0.20001 12,1 Q 294,660.5 314,660.5 q 20,0 26.5,-0.70001 Q 347,659 347,658 q 0,-1 8.5,-1 h 8.5 v -1 -1 l 5.20001,1.5 Q 374.5,658 374.79999,658.79999 375,659.5 387,659.79999 399,660 399,661 q 0,1 14.20001,1.5 Q 427.5,663 427.79999,662.20001 428,661.5 434,661.79999 440,662 440,660.5 440,659 452.5,658.79999 465,658.5 463,657.5 q -2,-1 5,-1.29999 Q 475,656 475,655 Z"
       inkscape:connector-curvature="0"
       style="fill:#252727;fill-rule:evenodd;stroke:#252727;stroke-width:0.5px" />
    <path
       id="svg_27"
       d="m 760.5,658 h 2.5 v 0.20001 0.29999 l 1.5,0.5 1.5,0.5 1,0.29999 1,0.20001 0.20001,1 0.29999,1 0.29999,0.20001 L 769,662.5 l 2.5,2 q 2.5,2 5.5,1.70001 3,-0.20001 4,-2 1,-1.70001 3,-1.70001 2,0 8.5,0.29999 L 799,663 v 0.20001 0.29999 l 1,0.5 1,0.5 0.20001,0.29999 L 801.5,665 l 0.5,2 0.5,2 v 0.5 0.5 l -0.29999,0.20001 L 802,670.5 801.79999,670.79999 801.5,671 801.20001,671.20001 801,671.5 l -1,0.5 -1,0.5 V 672.79999 673 l -4,0.20001 q -4,0.29999 -49.5,1 L 700,675 684.5,674.79999 669,674.5 669.20001,674.20001 669.5,674 669.79999,673.79999 670,673.5 l 1,-0.5 1,-0.5 V 672.20001 672 h 5 5 L 681.79999,671 681.5,670 681.20001,669.79999 681,669.5 l 0.20001,-0.29999 Q 681.5,669 682,668.5 q 0.5,-0.5 -1.79999,-1.29999 L 678,666.5 V 666.20001 666 l 4.20001,-0.5 q 4.29999,-0.5 3,-1.70001 -1.20001,-1.29999 4,-3 5.29999,-1.79999 6.59998,-3 Q 697,656.5 707.5,655.5 q 10.5,-1 25.5,-1 15,0 16.5,0.5 1.5,0.5 5,0.20001 Q 758,655 758,656.5 q 0,1.5 2.5,1.5 z"
       inkscape:connector-curvature="0"
       style="fill:#303334;fill-rule:evenodd;stroke:#303334;stroke-width:0.5px" />
    <path
       id="svg_28"
       d="M 251,660.79999 V 661 h -0.2 -0.3 l -0.3,0.20001 -0.2,0.29999 -0.2,0.29999 -0.3,0.20001 -0.3,0.20001 -0.2,0.29999 4.5,0.5 4.5,0.5 -0.20001,0.29999 L 257.5,664 257.20001,664.20001 257,664.5 l -1,0.5 -1,0.5 1,0.5 1,0.5 -4,0.5 -4,0.5 0.2,0.29999 0.3,0.20001 0.3,0.20001 0.2,0.29999 1,0.29999 Q 252,669 252.2,670 l 0.3,1 0.3,0.20001 0.2,0.29999 1.2,3.70001 Q 255.5,679 255.8,679.5 l 0.2,0.5 -2,0.20001 -2,0.29999 -12.5,0.5 q -12.5,0.5 -46.5,0.5 h -34 l -1,-0.29999 -1,-0.20001 0.2,-1.5 q 0.3,-1.5 1.3,-2.5 1,-1 0.3,-1.79999 L 158,674.5 157.8,674.20001 157.5,674 l -0.5,-1 -0.5,-1 -0.5,-2 -0.5,-2 -0.3,-0.20001 -0.2,-0.29999 0.2,-0.29999 0.3,-0.20001 0.3,-0.20001 0.2,-0.29999 1,-0.5 1,-0.5 0.2,-0.29999 Q 158.5,665 158.8,664.5 l 0.2,-0.5 20,-1.20001 q 20,-1.29999 26.5,-0.59998 6.5,0.79999 7,0 Q 213,661.5 226,661.5 q 13,0 12,-0.5 -1,-0.5 6,-0.5 7,0 7,0.29999 z"
       inkscape:connector-curvature="0"
       style="fill:#2d2f2f;fill-rule:evenodd;stroke:#2d2f2f;stroke-width:0.5px" />
    <path
       id="svg_29"
       d="M 920.5,308.20001 907,306 l 4.5,0.20001 4.5,0.29999 4.5,0.5 q 4.5,0.5 5.5,0.79999 l 1,0.20001 13,1.20001 q 13,1.29999 18,1.59998 L 963,311 v 2.5 2.5 l 0.20001,8 q 0.29999,8 0.59998,21.5 L 964,359 962,358.79999 960,358.5 959.79999,358.20001 959.5,358 959,344.5 Q 958.5,331 958.20001,322 958,313 946,311.79999 934,310.5 920.5,308.20001 Z"
       inkscape:connector-curvature="0"
       style="fill:#191919;fill-rule:evenodd;stroke:#191919;stroke-width:0.5px" />
    <path
       id="svg_30"
       d="M 592,654.20001 609,654 v 0.20001 Q 609,654.5 605.5,655 l -3.5,0.5 1,0.5 q 1,0.5 3.5,1 l 2.5,0.5 -9.5,0.29999 L 590,658 v 1.5 1.5 l 13.5,0.79999 Q 617,662.5 616.5,663 q -0.5,0.5 28,2 28.5,1.5 30.5,1.5 2,0 2.5,-0.29999 L 678,666 v 0.20001 0.29999 l 2.20001,0.70001 Q 682.5,668 682,668.5 q -0.5,0.5 -0.79999,0.70001 L 681,669.5 681.20001,669.79999 681.5,670 l 0.29999,1 0.20001,1 h -5 -5 l -9,0.20001 Q 654,672.5 642,673 q -12,0.5 -72,1.79999 L 510,676 509.79999,674.5 Q 509.5,673 509,670.5 508.5,668 504.79999,666.20001 501,664.5 494,663.5 l -7,-1 -0.20001,-0.29999 L 486.5,662 486.20001,661.79999 486,661.5 l -1,-0.5 -1,-0.5 2.5,-0.5 2.5,-0.5 -0.20001,-0.29999 L 488.5,659 488.20001,658.79999 488,658.5 l -1,-0.5 -1,-0.5 1,-0.29999 L 488,657 v -1 -1 l 43.5,-0.20001 Q 575,654.5 592,654.20001 Z"
       inkscape:connector-curvature="0"
       style="fill:#373e44;fill-rule:evenodd;stroke:#373e44;stroke-width:0.5px" />
    <path
       id="svg_31"
       d="M 954.20001,525.20001 949.5,525 947,523 q -2.5,-2 -3.5,-5 -1,-3 -0.5,-8 0.5,-5 3.20001,-7.79999 Q 949,499.5 954.5,500 q 5.5,0.5 7.70001,3.20001 Q 964.5,506 964.5,512.5 q 0,6.5 -2.70001,9.70001 -2.79999,3.29999 -7.59998,3 z"
       inkscape:connector-curvature="0"
       style="fill:#283c6e;fill-rule:evenodd;stroke:#283c6e;stroke-width:0.5px" />
  </g>
</svg>
