<?xml version="1.0" encoding="UTF-8" standalone="no"?>
<!-- Generator: Adobe Illustrator 18.0.0, SVG Export Plug-In . SVG Version: 6.00 Build 0)  -->

<svg
   xmlns:dc="http://purl.org/dc/elements/1.1/"
   xmlns:cc="http://creativecommons.org/ns#"
   xmlns:rdf="http://www.w3.org/1999/02/22-rdf-syntax-ns#"
   xmlns:svg="http://www.w3.org/2000/svg"
   xmlns="http://www.w3.org/2000/svg"
   xmlns:sodipodi="http://sodipodi.sourceforge.net/DTD/sodipodi-0.dtd"
   xmlns:inkscape="http://www.inkscape.org/namespaces/inkscape"
   version="1.1"
   id="Capa_1"
   x="0px"
   y="0px"
   viewBox="0 0 300 300"
   xml:space="preserve"
   sodipodi:docname="regulacao.svg"
   width="300"
   height="300"
   inkscape:version="0.92.4 (5da689c313, 2019-01-14)"><metadata
   id="metadata39"><rdf:RDF><cc:Work
       rdf:about=""><dc:format>image/svg+xml</dc:format><dc:type
         rdf:resource="http://purl.org/dc/dcmitype/StillImage" /><dc:title></dc:title></cc:Work></rdf:RDF></metadata><defs
   id="defs37" /><sodipodi:namedview
   pagecolor="#ffffff"
   bordercolor="#666666"
   borderopacity="1"
   objecttolerance="10"
   gridtolerance="10"
   guidetolerance="10"
   inkscape:pageopacity="0"
   inkscape:pageshadow="2"
   inkscape:window-width="1366"
   inkscape:window-height="705"
   id="namedview35"
   showgrid="false"
   inkscape:zoom="1.1237522"
   inkscape:cx="251.31453"
   inkscape:cy="160.17512"
   inkscape:window-x="-8"
   inkscape:window-y="-8"
   inkscape:window-maximized="1"
   inkscape:current-layer="layer2" />
<g
   inkscape:groupmode="layer"
   id="layer2"
   inkscape:label="fundo"><path
     style="opacity:1;fill:#ff0000;fill-opacity:1;fill-rule:evenodd;stroke:#ffffff;stroke-width:7;stroke-miterlimit:4;stroke-dasharray:none;stroke-opacity:1"
     d="m 154.59953,4.4435934 c 135.08167,0.725297 135.53553,1.228981 132,143.4999966 2.82406,142.78822 2.23691,141.44975 -132.5,136.5 -142.405093,2.26653 -136.500003,-0.42756 -136.500003,-138 C 15.297217,5.1044924 14.033417,4.4435934 154.59953,4.4435934 Z"
     id="rect936"
     inkscape:connector-curvature="0"
     sodipodi:nodetypes="ccccc" /></g>
<g
   id="g4"
   transform="translate(0,3)">
</g>
<g
   id="g6"
   transform="translate(0,3)">
</g>
<g
   id="g8"
   transform="translate(0,3)">
</g>
<g
   id="g10"
   transform="translate(0,3)">
</g>
<g
   id="g12"
   transform="translate(0,3)">
</g>
<g
   id="g14"
   transform="translate(0,3)">
</g>
<g
   id="g16"
   transform="translate(0,3)">
</g>
<g
   id="g18"
   transform="translate(0,3)">
</g>
<g
   id="g20"
   transform="translate(0,3)">
</g>
<g
   id="g22"
   transform="translate(0,3)">
</g>
<g
   id="g24"
   transform="translate(0,3)">
</g>
<g
   id="g26"
   transform="translate(0,3)">
</g>
<g
   id="g28"
   transform="translate(0,3)">
</g>
<g
   id="g30"
   transform="translate(0,3)">
</g>
<g
   id="g32"
   transform="translate(0,3)">
</g>
<g
   inkscape:groupmode="layer"
   id="layer1"
   inkscape:label="chave"><path
     inkscape:connector-curvature="0"
     id="path922"
     d="m 228.65093,228.20979 c -4.25304,-1.56684 -5.1424,-2.39453 -40.36321,-37.56375 l -35.24864,-35.19701 -7.69697,-0.0369 c -8.3622,-0.0401 -11.51106,-0.51727 -16.44848,-2.49255 -8.44587,-3.37887 -14.9737,-9.4214 -19.02189,-17.60773 -4.5287,-9.15799 -5.67229,-21.02187 -2.6605,-27.6005 0.55252,-1.20687 1.15483,-2.1943 1.33845,-2.1943 0.18363,0 5.2333,4.9027 11.22148,10.89491 11.96827,11.9763 12.89827,12.661 15.88824,11.69751 1.1331,-0.36513 3.22683,-2.1349 7.46522,-6.31016 7.75364,-7.63815 8.66289,-9.46583 6.38492,-12.83447 -0.5945,-0.87915 -5.91134,-6.36719 -11.81518,-12.195641 -12.08204,-11.927753 -11.51141,-10.870995 -6.85469,-12.694396 3.2319,-1.265494 13.50109,-1.565555 18.54978,-0.542006 13.24365,2.684951 23.35527,11.694226 27.44162,24.450033 1.75684,5.48408 2.21764,12.82327 1.09664,17.46591 -0.32746,1.35618 -0.60198,3.11669 -0.61003,3.91225 -0.0139,1.37605 1.70311,3.15844 35.26994,36.61248 31.92722,31.81992 35.40742,35.41669 36.5756,37.80048 1.75661,3.58459 2.25605,6.55346 1.69858,10.09699 -1.4492,9.21177 -8.27449,14.99178 -17.60169,14.90599 -1.7316,-0.0159 -3.80573,-0.27114 -4.60919,-0.56714 z m 9.34746,-8.66417 c 3.78264,-1.88497 5.54336,-6.09602 4.2224,-10.09856 -0.92908,-2.81514 -4.87729,-5.70532 -7.79391,-5.70532 -2.69528,0 -6.59032,2.65338 -7.66563,5.22199 -1.36473,3.25991 -0.25557,7.70068 2.42206,9.69732 2.87508,2.14388 5.71592,2.42895 8.81508,0.88457 z M 133.99775,208.06496 c -1.89238,-0.67453 -4.15096,-2.74146 -5.17814,-4.73876 -0.40686,-0.79111 -1.13501,-2.76839 -1.61813,-4.39397 -1.83678,-6.18036 -8.08223,-11.51545 -17.91277,-15.30175 -3.25807,-1.25487 -4.16373,-1.4272 -7.60281,-1.44672 -3.378087,-0.0192 -4.212365,0.12241 -6.19157,1.05064 -1.258083,0.59004 -3.095618,1.65825 -4.08341,2.37381 -0.987793,0.71555 -2.755037,1.5798 -3.927198,1.92056 -3.879277,1.12774 -7.149157,-0.29527 -12.562303,-5.46696 -4.231854,-4.04309 -5.484727,-6.48672 -5.192484,-10.12748 0.138654,-1.7274 0.594564,-3.33868 1.362296,-4.81471 3.520766,-6.76889 3.266867,-5.87367 3.2517,-11.46511 -0.01233,-4.52839 -0.148277,-5.52165 -1.147825,-8.38329 -2.234306,-6.39676 -6.562557,-12.2546 -11.021712,-14.91678 -1.210125,-0.72246 -3.548551,-1.68367 -5.196498,-2.13602 -7.534516,-2.0682 -9.53809,-5.0084 -9.53809,-13.99695 0,-9.29276 1.953215,-12.31111 9.272899,-14.32968 4.215574,-1.16255 6.212993,-2.322748 9.251511,-5.373735 3.185238,-3.198323 5.645936,-7.200221 7.227727,-11.754626 0.998093,-2.873772 1.143375,-3.908683 1.153888,-8.219921 l 0.01205,-4.932224 -2.235065,-4.430938 c -4.197821,-8.322032 -3.335694,-12.009487 4.33882,-18.557739 1.691992,-1.443693 3.896845,-3.010567 4.899675,-3.48195 3.484591,-1.637962 7.089991,-0.93176 11.284418,2.210313 0.791104,0.592617 2.957789,1.541166 4.81486,2.107889 3.028491,0.924205 3.629131,0.984595 5.827651,0.585923 6.89044,-1.24947 13.93597,-4.763932 19.20577,-9.580235 2.66644,-2.436965 3.86919,-4.431398 5.0229,-8.329031 1.31546,-4.444099 3.62257,-7.189744 7.00561,-8.337208 1.84718,-0.626519 9.97579,-0.607394 12.11714,0.02855 2.82677,0.839451 5.18867,3.606076 6.58805,7.716928 1.58731,4.66289 2.0581,5.535076 4.25628,7.885099 4.54747,4.861619 12.70735,9.232034 19.47421,10.430348 2.90002,0.513555 3.38437,0.49251 6.16444,-0.267722 1.91471,-0.523595 3.99317,-1.487331 5.68839,-2.637585 3.22606,-2.18899 4.44204,-2.670292 6.74631,-2.670292 3.52556,0 6.41502,1.646139 11.14896,6.351619 5.57949,5.545932 6.01184,8.775179 2.20334,16.457096 -2.12193,4.28005 -2.20266,4.567868 -2.35068,8.380436 -0.19455,5.011017 0.57895,8.454379 3.03715,13.520281 2.44539,5.039526 6.40015,9.305838 10.5514,11.382624 1.58612,0.79351 3.20563,1.44273 3.5989,1.44273 1.1787,0 4.21288,1.19832 5.78017,2.28279 2.6631,1.84274 3.40138,3.78705 3.65861,9.63514 0.4941,11.23387 -1.1212,14.22821 -8.82589,16.3608 -4.02789,1.11491 -5.78723,1.91355 -8.10848,3.68082 -3.4905,2.65747 -6.55438,7.35261 -8.30891,12.73266 -0.38699,1.18666 -0.82933,2.15756 -0.98297,2.15756 -0.15365,0 -3.67492,-3.39928 -7.82503,-7.55395 l -7.54567,-7.55396 0.87276,-2.62265 c 1.60425,-4.82079 2.08908,-8.13855 2.09327,-14.32455 0.006,-9.54572 -1.30805,-15.38141 -5.32277,-23.630359 C 178.14802,70.211869 152.91783,57.876111 128.83153,63.451946 106.61949,68.5939 89.994288,86.646628 86.658808,109.24586 c -2.332891,15.80625 3.54334,32.57302 15.616652,44.55936 7.96734,7.90994 16.87641,12.72252 27.87634,15.05852 6.29988,1.33787 16.32947,1.18847 22.4174,-0.33392 0.80924,-0.20238 2.11344,0.91841 8.73296,7.50469 4.27991,4.25841 7.78166,7.87902 7.78166,8.04578 0,0.16675 -0.82604,0.66859 -1.83564,1.11518 -2.69807,1.19348 -5.40851,3.14763 -8.58241,6.18763 -2.96895,2.84371 -3.80748,4.15913 -4.99355,7.83351 -1.69577,5.25342 -3.88681,8.00256 -7.15942,8.98305 -2.19991,0.65912 -10.5399,0.56938 -12.51503,-0.13465 z"
     style="fill:#ffffff;stroke-width:0.41096279" /></g><g
   inkscape:groupmode="layer"
   id="layer3"
   inkscape:label="letreiro"
   sodipodi:insensitive="true" /></svg>